<svg height="512pt" viewBox="-16 0 512 512.00031" width="512pt" xmlns="http://www.w3.org/2000/svg"><path d="m67.789062 204.902344h-13.355468c-30.0625 0-54.433594 24.371094-54.433594 54.4375 0 30.0625 24.371094 54.433594 54.433594 54.433594h13.355468zm0 0" fill="#ffe5d1"/><path d="m5.292969 235.90625c-.09375 1.296875-.15625 2.597656-.15625 3.917969 0 30.0625 24.371093 54.433593 54.433593 54.433593h8.21875v19.515626h-13.355468c-30.0625 0-54.433594-24.371094-54.433594-54.433594 0-8.390625 1.902344-16.335938 5.292969-23.433594zm0 0" fill="#fcd3b9"/><path d="m53.40625 279.878906c-11.34375 0-20.539062-9.195312-20.539062-20.539062 0-11.347656 9.195312-20.542969 20.539062-20.542969h14.382812v41.082031zm0 0" fill="#fcd3b9"/><path d="m411.789062 204.902344h13.351563c30.0625 0 54.433594 24.371094 54.433594 54.4375 0 30.0625-24.371094 54.433594-54.433594 54.433594h-13.351563zm0 0" fill="#ffe5d1"/><path d="m474.28125 235.90625c.09375 1.296875.15625 2.597656.15625 3.917969 0 30.0625-24.371094 54.433593-54.433594 54.433593h-8.214844v19.515626h13.351563c30.0625 0 54.433594-24.371094 54.433594-54.433594 0-8.390625-1.902344-16.335938-5.292969-23.433594zm0 0" fill="#fcd3b9"/><path d="m426.167969 279.878906c11.34375 0 20.539062-9.195312 20.539062-20.539062 0-11.347656-9.195312-20.542969-20.539062-20.542969h-14.378907v41.082031zm0 0" fill="#fcd3b9"/><path d="m239.789062 463.726562c-96.433593 0-174.605468-78.171874-174.605468-174.605468v-59.570313c0-96.429687 78.171875-174.601562 174.605468-174.601562 96.429688 0 174.601563 78.171875 174.601563 174.601562v59.570313c0 96.433594-78.171875 174.605468-174.601563 174.605468zm0 0" fill="#ffe5d1"/><path d="m239.789062 54.949219c-6.246093 0-12.414062.335937-18.488281.972656 87.738281 9.234375 156.113281 83.445313 156.113281 173.632813v59.570312c0 90.183594-68.375 164.394531-156.113281 173.628906 6.074219.640625 12.242188.972656 18.484375.972656 96.433594 0 174.605469-78.171874 174.605469-174.601562v-59.570312c0-96.433594-78.171875-174.605469-174.601563-174.605469zm0 0" fill="#fcd3b9"/><path d="m210.003906 437.867188h59.570313v59.570312h-59.570313zm0 0" fill="#88e9ff"/><path d="m254.167969 437.867188v32.867187c0 5.671875-4.601563 10.269531-10.273438 10.269531h-33.894531v16.433594h59.570312v-59.570312zm0 0" fill="#2dd3f9"/><path d="m269.570312 437.867188 86.914063-14.355469c11.25-1.855469 20.367187 9.039062 16.554687 19.78125-1.746093 4.921875-.804687 10.398437 2.488282 14.449219l.378906.46875c4.46875 5.5 4.46875 13.382812 0 18.882812l-.378906.464844c-3.292969 4.054687-4.238282 9.527344-2.488282 14.449218 3.8125 10.746094-5.304687 21.640626-16.554687 19.78125l-86.914063-14.351562zm0 0" fill="#88e9ff"/><path d="m375.90625 458.210938-.390625-.480469c-3.34375-4.117188-4.09375-9.640625-2.398437-14.664063 3.605468-10.671875-5.460938-21.398437-16.628907-19.554687l-8.933593 1.476562c6.300781 3.296875 9.933593 10.964844 7.132812 18.519531-1.789062 4.820313-.671875 10.25 2.574219 14.246094l.371093.457032c4.46875 5.5 4.46875 13.382812 0 18.882812l-.378906.464844c-1.671875 1.933594-2.515625 4.15625-2.878906 6.308594-.847656 4.988281-5.566406 8.347656-10.558594 7.523437l-74.242187-12.257813v18.304688l86.914062 14.351562c1.089844.179688 2.101563.242188 3.042969.199219 9.820312-.351562 17.035156-10.316406 13.457031-20.117187-1.773437-4.855469-.722656-10.300782 2.539063-14.3125l.378906-.464844c4.472656-5.5 4.472656-13.382812 0-18.882812zm0 0" fill="#2dd3f9"/><path d="m210.003906 437.867188-86.917968-14.355469c-11.246094-1.855469-20.363282 9.039062-16.550782 19.78125 1.746094 4.921875.804688 10.398437-2.488281 14.449219l-.378906.46875c-4.46875 5.5-4.46875 13.382812 0 18.882812l.378906.464844c3.292969 4.054687 4.234375 9.527344 2.488281 14.449218-3.8125 10.746094 5.304688 21.640626 16.550782 19.78125l86.914062-14.351562v-59.570312zm0 0" fill="#88e9ff"/><path d="m191.726562 434.847656v31.5625c0 10.054688-7.277343 18.628906-17.195312 20.269532l-51.445312 8.496093c-6.820313 1.125-12.847657-2.441406-15.695313-7.8125-.035156 1.5625-.316406 3.128907-.855469 4.644531-3.8125 10.746094 5.304688 21.636719 16.550782 19.78125l86.914062-14.351562v-59.570312zm0 0" fill="#2dd3f9"/><g fill="#57565c"><path d="m328.117188 293.746094c-23.503907 0-42.625-19.121094-42.625-42.625 0-4.253906 3.449218-7.703125 7.703124-7.703125 4.253907 0 7.703126 3.449219 7.703126 7.703125 0 15.007812 12.210937 27.21875 27.21875 27.21875 15.007812 0 27.21875-12.210938 27.21875-27.21875 0-4.253906 3.445312-7.703125 7.703124-7.703125 4.253907 0 7.699219 3.449219 7.699219 7.703125 0 23.503906-19.121093 42.625-42.621093 42.625zm0 0"/><path d="m151.457031 293.746094c-23.5 0-42.621093-19.121094-42.621093-42.625 0-4.253906 3.445312-7.703125 7.703124-7.703125 4.253907 0 7.699219 3.449219 7.699219 7.703125 0 15.007812 12.210938 27.21875 27.21875 27.21875 15.007813 0 27.21875-12.210938 27.21875-27.21875 0-4.253906 3.449219-7.703125 7.703125-7.703125s7.703125 3.449219 7.703125 7.703125c0 23.503906-19.121093 42.625-42.625 42.625zm0 0"/><path d="m239.789062 372.832031c-20.105468 0-36.464843-16.355469-36.464843-36.460937 0-4.257813 3.449219-7.703125 7.703125-7.703125 4.257812 0 7.703125 3.445312 7.703125 7.703125 0 11.609375 9.445312 21.054687 21.058593 21.054687 11.609376 0 21.054688-9.445312 21.054688-21.054687 0-4.257813 3.445312-7.703125 7.703125-7.703125 4.253906 0 7.703125 3.445312 7.703125 7.703125 0 20.101562-16.359375 36.460937-36.460938 36.460937zm0 0"/><path d="m239.789062 109.898438c-30.300781 0-54.949218-24.652344-54.949218-54.949219 0-30.300781 24.648437-54.949219 54.949218-54.949219 4.253907 0 7.699219 3.449219 7.699219 7.703125s-3.445312 7.703125-7.699219 7.703125c-21.804687 0-39.542968 17.738281-39.542968 39.542969 0 21.804687 17.738281 39.542969 39.542968 39.542969 21.800782 0 39.542969-17.738282 39.542969-39.542969 0-8.777344-7.144531-15.921875-15.921875-15.921875s-15.921875 7.140625-15.921875 15.921875c0 4.253906-3.445312 7.703125-7.699219 7.703125-4.257812 0-7.703124-3.449219-7.703124-7.703125 0-17.273438 14.050781-31.328125 31.324218-31.328125 17.273438 0 31.324219 14.054687 31.324219 31.328125 0 30.296875-24.648437 54.949219-54.945313 54.949219zm0 0"/></g></svg>