<svg id="Layer_1" enable-background="new 0 0 512 512" height="512" viewBox="0 0 512 512" width="512" xmlns="http://www.w3.org/2000/svg"><g><g><g><g><g><path d="m384 464h-64v-112c0-17.673 14.327-32 32-32h32z" fill="#faa019"/></g></g></g></g><g><g><g><g><path d="m392 496h-64c-4.418 0-8-3.582-8-8v-24h64c8.837 0 16 7.163 16 16v8c0 4.418-3.582 8-8 8z" fill="#f0915a"/></g></g></g></g><g><g><g><g><path d="m256 320c-44.183 0-80 35.817-80 80v32h-32v48c0 8.837 7.163 16 16 16h48c35.346 0 64-28.654 64-64v-112z" fill="#faa019"/></g></g></g></g><g><g><g><g><path d="m72 493.333h8c8.837 0 16-7.163 16-16v-53.333h-24c-4.418 0-8 3.582-8 8v53.333c0 4.419 3.582 8 8 8z" fill="#fab991"/></g></g></g></g><g><g><g><g><path d="m208 320c-44.183 0-80 35.817-80 80v24h-32v56c0 8.837 7.163 16 16 16h48c35.346 0 64-28.654 64-64h48v32h64v-38.676c28.25-12.347 48-40.522 48-73.324v-32z" fill="#ffd205"/></g></g></g></g><g><g><g><g><path d="m344 496h-64c-4.418 0-8-3.582-8-8v-24h64c8.837 0 16 7.163 16 16v8c0 4.418-3.582 8-8 8z" fill="#fab991"/></g></g></g></g><g><g><g><g><circle cx="352" cy="320" fill="#d7e6f0" r="32"/></g></g></g></g><g><g><g><g><path d="m320 64c-70.693 0-128 57.308-128 128 0 70.692 57.307 128 128 128h48c44.183 0 80-35.817 80-80v-48c0-70.692-57.307-128-128-128z" fill="#fab991"/></g></g></g></g><g><g><g><g><path d="m385.031 81.714c-22.372-13.213-47.9-19.026-73.054-17.456l-119.718 119.719c-1.57 25.154 4.243 50.682 17.456 73.054z" fill="#ffd205"/></g></g></g></g><g><g><g><g><path d="m288 192v80c-22.091 0-40-17.909-40-40s17.909-40 40-40z" fill="#f0915a"/></g></g></g></g><g><g><g><g><g><circle cx="348" cy="204" fill="#463c4b" r="12"/></g></g></g></g><g><g><g><g><circle cx="412" cy="204" fill="#463c4b" r="12"/></g></g></g></g></g><g><g><g><g><path d="m389.333 264c-5.891 0-10.667-4.776-10.667-10.667v-29.333c11.782 0 21.333 9.551 21.333 21.333v8c.001 5.891-4.775 10.667-10.666 10.667z" fill="#f0915a"/></g></g></g></g><g><g><g><g><path d="m344 48h32v34.667h-32z" fill="#23aae6"/></g></g></g></g><g><g><g><g><path d="m411.133 19.893-35.133 28.107v34.667l35.31 25.894c3.047 2.235 6.728 3.44 10.507 3.44h.416c9.813 0 17.767-7.955 17.767-17.767v-60.467c0-9.812-7.955-17.767-17.768-17.767-4.034 0-7.948 1.373-11.099 3.893z" fill="#5ad7ff"/></g></g></g></g><g><g><g><g><path d="m308.867 19.893 35.133 28.107v34.667l-35.31 25.894c-3.047 2.235-6.728 3.44-10.507 3.44h-.416c-9.812-.001-17.767-7.956-17.767-17.768v-60.466c0-9.812 7.955-17.767 17.767-17.767 4.035 0 7.949 1.373 11.1 3.893z" fill="#5ad7ff"/></g></g></g></g><g><g><g><g><path d="m344 248h-16c-4.418 0-8-3.582-8-8 0-4.418 3.582-8 8-8h16c4.418 0 8 3.582 8 8 0 4.418-3.582 8-8 8z" fill="#f0915a"/></g></g></g></g><g><g><g><g><path d="m432 240c0 4.418 3.582 8 8 8h7.601c.261-2.631.399-5.298.399-7.998v-8.002h-8c-4.418 0-8 3.582-8 8z" fill="#f0915a"/></g></g></g></g></g></svg>