<svg id="Layer_1" enable-background="new 0 0 128 128" height="512" viewBox="0 0 128 128" width="512" xmlns="http://www.w3.org/2000/svg"><g><path d="m120.733 108.125c-1.578-3.149-4.896-11.538-1.646-21.4.507-1.535.385-3.176-.343-4.619s-1.975-2.518-3.509-3.022c-3.164-1.046-6.595.683-7.642 3.853-1.037 3.144-1.667 6.407-1.881 9.73l-9.728-9.732c5.601-9.474 4.089-21.81-3.729-29.627-.142-.142-.289-.275-.434-.413h5.407c.553 0 1-.447 1-1v-27.346h10.436c2.602 0 4.718-2.116 4.718-4.718s-2.116-4.718-4.718-4.718h-84.782c-2.602 0-4.718 2.116-4.718 4.718s2.116 4.718 4.718 4.718h1.564v16.181c-1.355.427-2.343 1.679-2.343 3.175 0 1.219.66 2.276 1.635 2.86l-.038.339-1.987 13.687c-.173 1.529 1.024 2.869 2.563 2.868l2.345-.001c1.539-.001 2.735-1.341 2.561-2.87l-2.002-13.686-.035-.332c.982-.583 1.646-1.642 1.646-2.866 0-1.496-.989-2.748-2.344-3.175v-16.18h6.871v27.345c0 .553.447 1 1 1h4.343c-.153.145-.316.271-.466.421-7.851 7.852-9.351 20.226-3.702 29.72l-7.7 7.7-6.938-6.938c-1.132-1.132-2.638-1.756-4.238-1.756s-3.106.624-4.238 1.756c-2.337 2.337-2.337 6.14 0 8.477l6.937 6.938-6.937 6.938c-2.337 2.338-2.337 6.141 0 8.477 2.336 2.338 6.141 2.338 8.477 0l6.938-6.938 6.938 6.938c1.168 1.169 2.703 1.753 4.238 1.753s3.07-.584 4.238-1.753c2.337-2.336 2.337-6.139 0-8.477l-6.938-6.938 7.7-7.7c6.706 3.99 14.844 4.396 21.816 1.533 7.092 2.901 15.092 2.324 21.641-1.551l9.728 9.731c-3.325.214-6.589.844-9.731 1.881-.896.295-1.72.802-2.383 1.465-1.626 1.626-2.189 3.993-1.47 6.178 1.044 3.168 4.469 4.895 7.643 3.853 9.854-3.254 18.249.067 21.398 1.644.863.433 1.791.644 2.711.644 1.568 0 3.114-.611 4.278-1.774 1.845-1.849 2.3-4.657 1.132-6.991zm-54.543-29.908c-1.856-2.13-2.878-4.823-2.878-7.683 0-2.848 1.015-5.532 2.856-7.658 3.545 4.48 3.551 10.853.022 15.341zm-12.318-19.777c-4.251 7.422-4.326 16.669.073 24.261-2.3-.469-4.493-1.589-6.274-3.369-4.836-4.836-4.836-12.704 0-17.541 1.762-1.762 3.928-2.873 6.201-3.351zm24.166.78c1.934.511 3.764 1.512 5.278 3.026 4.57 4.57 4.57 12.006 0 16.576-1.456 1.456-3.273 2.495-5.251 3.023 3.681-7.065 3.674-15.567-.027-22.625z" fill="#e6e7e8"/><g><g><path d="m66.491 47.893h-28.1c-.863.65-1.704 1.343-2.49 2.129-7.907 7.907-8.947 20.109-3.143 29.16l-8.967 8.967-7.645-7.645c-1.95-1.95-5.112-1.95-7.062 0s-1.95 5.112 0 7.063l7.645 7.645-7.645 7.645c-1.95 1.95-1.95 5.112 0 7.062s5.112 1.95 7.062 0l7.645-7.645 7.645 7.645c1.95 1.95 5.112 1.95 7.062 0s1.95-5.112 0-7.062l-7.645-7.645 8.967-8.967c9.051 5.805 21.252 4.765 29.16-3.143 9.12-9.12 9.12-23.959 0-33.08-.784-.786-1.625-1.479-2.489-2.129zm-4.572 28.146c-5.226 5.226-13.729 5.226-18.955 0s-5.226-13.729 0-18.955 13.729-5.226 18.955 0 5.226 13.729 0 18.955z" fill="#fa759e"/><path d="m115.838 104.572c-1.633-3.262-5.067-11.95-1.701-22.161.874-2.649-.566-5.506-3.216-6.379-2.648-.874-5.503.567-6.379 3.216-1.371 4.16-1.89 8.117-1.911 11.751l-11.911-11.916c5.758-9.035 4.71-21.188-3.172-29.069-.782-.782-1.62-1.473-2.479-2.121h-28.083c-.859.648-1.697 1.338-2.479 2.121-8.135 8.135-8.983 20.814-2.59 29.923 3.605.142 7.256-1.151 10.002-3.898.108-.108.206-.221.309-.332-.064-.062-.133-.114-.196-.177-4.96-4.96-4.96-13.03 0-17.99s13.03-4.96 17.99 0 4.96 13.03 0 17.99c-2.204 2.204-5.022 3.423-7.909 3.668-.887 1.382-1.924 2.695-3.132 3.904-2.129 2.129-4.572 3.745-7.177 4.876 7.018 3.004 15.213 2.429 21.772-1.75l11.91 11.916c-3.634.021-7.59.54-11.75 1.912-.776.256-1.448.681-1.989 1.222-1.306 1.306-1.845 3.283-1.227 5.157.873 2.65 3.729 4.09 6.379 3.216 10.212-3.367 18.899.068 22.16 1.701 1.945.974 4.295.594 5.834-.945s1.919-3.889.945-5.835z" fill="#0089ef"/></g><g><g><g><path d="m31.317 19.549h61.912v28.344h-61.912z" fill="#6dc9f7"/><path d="m31.317 19.549h61.912v28.344h-61.912z" fill="#6dc9f7"/><path d="m90.229 19.549h3v28.344h-3z" fill="#fff"/><path d="m104.664 19.549h-84.782c-2.053 0-3.718-1.665-3.718-3.718 0-2.053 1.665-3.718 3.718-3.718h84.782c2.053 0 3.718 1.665 3.718 3.718 0 2.053-1.664 3.718-3.718 3.718z" fill="#6dc9f7"/></g></g><g fill="#3a2c60"><path d="m116.733 104.124c-1.578-3.149-4.896-11.539-1.646-21.399.507-1.535.385-3.176-.343-4.619s-1.975-2.518-3.509-3.022c-3.165-1.045-6.594.684-7.642 3.852-1.037 3.144-1.667 6.407-1.881 9.731l-9.728-9.732c5.6-9.474 4.088-21.81-3.729-29.627-.143-.143-.292-.277-.439-.414h5.413c.553 0 1-.447 1-1v-27.345h10.436c2.602 0 4.718-2.116 4.718-4.718s-2.116-4.719-4.718-4.719h-13.543c-.553 0-1 .447-1 1s.447 1 1 1h13.542c1.499 0 2.718 1.22 2.718 2.719s-1.219 2.718-2.718 2.718h-84.782c-1.499 0-2.718-1.219-2.718-2.718s1.219-2.719 2.718-2.719h54.24c.553 0 1-.447 1-1s-.447-1-1-1h-54.24c-2.602 0-4.718 2.117-4.718 4.719s2.116 4.718 4.718 4.718h1.564v16.18c-1.355.427-2.343 1.679-2.343 3.175 0 1.219.66 2.276 1.635 2.86l-.038.34-1.987 13.687c-.173 1.53 1.024 2.869 2.563 2.868l2.345-.001c1.539-.001 2.735-1.341 2.561-2.87l-2.002-13.686-.035-.332c.982-.583 1.646-1.642 1.646-2.866 0-1.496-.989-2.748-2.344-3.175v-16.18h6.871v27.344c0 .553.447 1 1 1h4.324c-.15.14-.301.276-.447.422-7.851 7.851-9.351 20.225-3.702 29.72l-7.7 7.7-6.938-6.938c-1.132-1.132-2.638-1.756-4.238-1.756s-3.106.624-4.238 1.756c-2.337 2.337-2.337 6.14 0 8.477l6.938 6.938-6.938 6.938c-2.337 2.337-2.337 6.14 0 8.477 2.336 2.338 6.141 2.338 8.477 0l6.938-6.938 6.938 6.938c1.168 1.169 2.703 1.753 4.238 1.753s3.07-.584 4.238-1.753c1.132-1.132 1.756-2.638 1.756-4.238s-.624-3.106-1.756-4.238l-6.938-6.938 7.7-7.7c6.71 3.991 14.848 4.397 21.819 1.533 7.092 2.899 15.09 2.323 21.638-1.552l9.728 9.731c-3.323.214-6.587.845-9.731 1.881-.907.3-1.709.792-2.383 1.465-1.626 1.627-2.189 3.994-1.47 6.178 1.044 3.168 4.47 4.895 7.643 3.853 9.855-3.25 18.249.068 21.399 1.646.862.432 1.79.642 2.71.642 1.568 0 3.115-.61 4.278-1.774 1.845-1.849 2.3-4.657 1.132-6.992zm-84.415-83.575h59.911v26.344h-59.911zm8.044 64.854c-.396-.254-.914-.198-1.247.135l-8.967 8.967c-.391.391-.391 1.023 0 1.414l7.645 7.645c.754.755 1.17 1.758 1.17 2.824s-.416 2.069-1.17 2.824c-1.557 1.557-4.092 1.557-5.648 0l-7.645-7.645c-.195-.195-.451-.293-.707-.293s-.512.098-.707.293l-7.645 7.645c-1.557 1.557-4.092 1.557-5.648 0-1.558-1.558-1.558-4.091 0-5.648l7.645-7.645c.391-.391.391-1.023 0-1.414l-7.646-7.645c-1.558-1.558-1.558-4.091 0-5.648.755-.754 1.758-1.17 2.824-1.17s2.069.416 2.824 1.17l7.645 7.645c.391.391 1.023.391 1.414 0l8.967-8.967c.332-.332.389-.852.135-1.247-5.639-8.792-4.373-20.531 3.008-27.913.67-.67 1.382-1.27 2.112-1.836h15.518c-.147.137-.296.271-.439.414-.915.915-1.728 1.896-2.469 2.914-3.309.253-6.547 1.632-9.073 4.157-5.615 5.615-5.615 14.753 0 20.369 2.808 2.808 6.496 4.212 10.185 4.212 3.688 0 7.377-1.404 10.185-4.212 5.265-5.266 5.567-13.613.957-19.264 2.276-1.874 5.098-2.748 7.891-2.642 5.311 8.626 4.268 20.085-3.2 27.554-7.384 7.379-19.123 8.643-27.914 3.007zm9.507-30.959c-4.248 7.422-4.323 16.665.076 24.257-2.3-.469-4.493-1.589-6.273-3.369-4.836-4.837-4.836-12.705 0-17.541 1.76-1.761 3.925-2.869 6.197-3.347zm12.289 4.445c3.542 4.478 3.558 10.84.033 15.326-3.814-4.382-3.825-10.931-.033-15.326zm11.818-3.683c1.957.505 3.81 1.511 5.34 3.04 4.57 4.57 4.57 12.006 0 16.576-1.463 1.463-3.29 2.504-5.277 3.029 3.685-7.075 3.658-15.578-.063-22.645zm40.21 54.492c-1.236 1.236-3.116 1.543-4.68.758-3.372-1.688-12.354-5.24-22.921-1.756-2.116.693-4.418-.458-5.116-2.579-.481-1.463-.104-3.048.983-4.137.451-.45.987-.779 1.597-.98 3.676-1.212 7.525-1.838 11.442-1.861.403-.002.766-.247.919-.62s.067-.802-.218-1.087l-11.909-11.916c-.331-.333-.85-.386-1.244-.137-5.591 3.565-12.442 4.424-18.724 2.448 1.938-1.072 3.756-2.404 5.374-4.023 1.145-1.145 2.135-2.383 3.003-3.679 3.037-.369 5.877-1.732 8.038-3.893 5.35-5.35 5.35-14.055 0-19.404-5.35-5.351-14.056-5.349-19.405 0-5.17 5.17-5.328 13.465-.5 18.85-2.357 2.167-5.347 3.267-8.348 3.275-5.945-8.866-4.837-20.663 2.737-28.237.667-.667 1.376-1.264 2.102-1.828h27.423c.727.564 1.435 1.161 2.102 1.828 7.35 7.35 8.626 19.052 3.035 27.825-.252.396-.195.912.137 1.244l11.91 11.916c.286.286.714.373 1.087.218.373-.153.618-.516.62-.919.023-3.918.649-7.769 1.861-11.442.702-2.122 2.992-3.282 5.117-2.58 1.027.338 1.861 1.057 2.349 2.023.487.966.569 2.064.229 3.092-3.483 10.568.068 19.551 1.757 22.922.783 1.563.478 3.444-.757 4.679z"/><path d="m78.622 13.113h8.121c.553 0 1-.447 1-1s-.447-1-1-1h-8.121c-.553 0-1 .447-1 1s.448 1 1 1z"/></g></g></g></g></svg>