<svg id="Capa_1" enable-background="new 0 0 512.117 512.117" height="512" viewBox="0 0 512.117 512.117" width="512" xmlns="http://www.w3.org/2000/svg"><g><g><path d="m291.218 11.067h-40l-60 169.933 60 169.933h40c78.964-16.253 138.341-86.158 138.341-169.933s-59.377-153.68-138.341-169.933z" fill="#ffb5c0"/><path d="m306.537 393.979h-15.319v-43.046c-93.851-93.852-93.851-246.015 0-339.866-11.354-2.337-23.113-3.567-35.159-3.567-95.821 0-173.5 77.679-173.5 173.5 0 83.775 59.376 153.68 138.341 169.933v43.046h-15.32c-13.807 0-25 11.193-25 25v20.319c0 13.807 11.193 25 25 25h15.319v15.319c0 13.807 11.193 25 25 25h20.319c13.807 0 25-11.193 25-25v-15.319h15.319c13.807 0 25-11.193 25-25v-20.319c0-13.807-11.193-25-25-25z" fill="#ff8e9e"/></g><g><path d="m338.158 217.459c-6.528-6.528-15.382-10.196-24.614-10.196h-1.742l-27.113-15.43c5.975-10.566 9.392-22.776 9.392-35.797 0-36.941-27.496-67.457-63.138-72.208l-38.189 21.833v131.662l103.888 45.539c10.76-1.675 21.077-4.686 30.777-8.859 22.554-9.701 28.1-39.183 10.739-56.544z" fill="#efedff"/><path d="m311.802 207.264c3.461-6.095 2.404-13.756-2.551-18.711-7.268-7.268-19.503-5.667-24.561 3.281-10.99 19.445-30.658 33.333-53.746 36.41-20.768-17.181-34.001-43.148-34.001-72.207s13.233-55.026 34.001-72.208c-3.179-.424-6.422-.647-9.717-.647-40.932 0-73.981 33.758-72.823 74.939-.16-5.724-4.475 57.367 49.748 99.41 21.716 16.838 48.976 26.867 78.583 26.867 6.771 0 13.42-.525 19.908-1.535-13.175-7.7-23.897-19.135-30.717-32.854 19.31-9.222 35.356-24.216 45.876-42.745z" fill="#d4d4ff"/></g><g><path d="m268.751 173.326c2.722-3.122 2.396-7.86-.728-10.581-3.122-2.721-7.861-2.396-10.581.728-2.213 2.538-6.121 2.542-8.336 0-2.721-3.124-7.459-3.448-10.581-.728-3.123 2.721-3.449 7.459-.728 10.581 8.187 9.396 22.776 9.388 30.954 0z"/><path d="m205.115 162.745c-3.122-2.721-7.861-2.396-10.581.728-2.211 2.536-6.12 2.543-8.334.001-2.721-3.125-7.458-3.45-10.581-.729-3.124 2.721-3.45 7.458-.729 10.581 8.184 9.397 22.774 9.389 30.953.001 2.721-3.123 2.395-7.862-.728-10.582z"/><path d="m365.61 305.718c-24.249 21.321-53.854 34.997-85.616 39.55-4.1.587-6.947 4.388-6.359 8.488.587 4.092 4.378 6.948 8.488 6.359.533-.076 1.063-.162 1.595-.243v34.107c0 4.143 3.357 7.5 7.5 7.5h15.319c9.649 0 17.5 7.851 17.5 17.5v20.318c0 9.649-7.851 17.5-17.5 17.5h-15.319c-4.143 0-7.5 3.357-7.5 7.5v15.319c0 9.649-7.851 17.5-17.5 17.5l-20.318-.001c-9.649 0-17.5-7.851-17.5-17.5v-15.318c0-4.143-3.357-7.5-7.5-7.5h-15.32c-9.649 0-17.5-7.851-17.5-17.5v-20.319c0-9.649 7.851-17.5 17.5-17.5h15.319c4.143 0 7.5-3.357 7.5-7.5v-34.11c1.296.197 1.84.324 2.669.324 3.67 0 6.879-2.697 7.414-6.437.588-4.101-2.26-7.901-6.359-8.488-80.99-11.607-142.064-82.227-142.064-164.267 0-34.998 10.761-68.466 31.119-96.785 2.418-3.363 1.651-8.05-1.712-10.468-3.363-2.417-8.05-1.651-10.468 1.712-22.203 30.887-33.939 67.382-33.939 105.541 0 84.512 58.256 156.584 138.341 175.922v29.557h-7.819c-17.921 0-32.5 14.579-32.5 32.5v20.319c0 17.921 14.579 32.5 32.5 32.5h7.819v7.818c0 17.921 14.579 32.5 32.5 32.5l20.318.001c17.921 0 32.5-14.579 32.5-32.5v-7.819h7.819c17.921 0 32.5-14.579 32.5-32.5v-20.318c0-17.921-14.579-32.5-32.5-32.5h-7.819v-29.548c28.339-6.824 54.625-20.455 76.797-39.948 3.111-2.735 3.415-7.475.681-10.585-2.738-3.112-7.477-3.417-10.586-.681z"/><path d="m256.059 0c-47.675 0-92.675 18.379-126.711 51.751-2.957 2.9-3.004 7.648-.104 10.606 2.897 2.955 7.645 3.006 10.606.104 31.214-30.606 72.485-47.461 116.209-47.461 93.228 0 166 76.306 166 166 0 38.283-12.662 74.249-36.619 104.009-2.597 3.227-2.087 7.948 1.14 10.546 3.23 2.598 7.948 2.084 10.546-1.14 25.751-31.991 39.934-72.27 39.934-113.415-.001-99.758-80.936-181-181.001-181z"/><path d="m221.228 75.683c-49.057 0-97.296 45.229-74.615 119.501 24.047 78.743 110.283 117.328 183.771 85.71 12.841-5.523 22.082-17.034 24.722-30.789 4.475-23.312-11.039-45.436-33.818-49.628.233-6.279-2.08-12.575-6.733-17.228-4.238-4.238-9.794-6.607-15.649-6.767 13.483-50.913-25.183-100.799-77.678-100.799zm84.053 127.878c-9.859 17.362-24.585 31.084-42.587 39.682-3.737 1.785-5.32 6.263-3.535 10 1.785 3.738 6.261 5.321 10 3.535 19.412-9.271 35.521-23.706 46.836-41.9 28.307 2.502 34.078 41.217 8.459 52.237-63.871 27.486-140.249-4.644-162.824-74.177-21.269-65.511 19.899-102.255 59.597-102.255 36.036 0 65.354 29.318 65.354 65.354 0 32.623-24.346 60.469-56.63 64.772-4.105.548-6.99 4.319-6.443 8.426.548 4.106 4.326 6.995 8.426 6.443 25.242-3.365 46.523-18.438 58.689-39.271.771-1.002 2.114-4.263 6.474-4.856 6.643-.919 11.472 6.216 8.184 12.01z"/></g></g></svg>