<svg id="Capa_1" enable-background="new 0 0 511.999 511.999" height="512" viewBox="0 0 511.999 511.999" width="512" xmlns="http://www.w3.org/2000/svg"><g><g><path d="m452.548 7.5h-145.477c-29.354 0-53.15 23.796-53.15 53.15v9.352c0 29.354 23.796 53.15 53.15 53.15l-51.43 51.43c-14.822-7.062-32.304-11.898-48.225-14.521h-30l-100 171.345 100 171.345h30c35.882-5.111 68.603-21.436 96.146-48.979 53.306-53.306 64.568-132.942 33.856-197.413l51.429-51.429c0 29.354 23.796 53.15 53.15 53.15h9.352c29.354 0 53.15-23.796 53.15-53.15v-145.479c0-28.692-23.259-51.951-51.951-51.951z" fill="#7ce3ff"/><path d="m207.417 160.059c-53.332-8.788-108.141 7.323-149.188 48.377h-.004c-67.633 67.641-67.633 177.694.004 245.334 40.096 40.096 96.953 56.42 149.188 48.979-90.474-96.897-92.505-247.834 0-342.69z" fill="#2ed0fc"/></g><g><path d="m262.972 367.576c-6.528-6.528-15.382-10.196-24.614-10.196h-1.742l-27.113-15.43c5.975-10.566 9.392-22.776 9.392-35.797 0-36.941-27.496-67.457-63.138-72.208l-38.189 21.833v131.662l103.888 45.539c10.76-1.675 21.077-4.686 30.777-8.859 22.555-9.702 28.1-39.183 10.739-56.544z" fill="#efedff"/><path d="m236.617 357.38c3.461-6.095 2.404-13.756-2.551-18.711-7.268-7.268-19.503-5.667-24.561 3.281-10.99 19.445-30.658 33.333-53.746 36.41-20.768-17.181-34.001-43.148-34.001-72.207s13.233-55.026 34.001-72.208c-3.179-.424-6.422-.647-9.717-.647-40.932 0-73.981 33.758-72.823 74.939-.16-5.724-4.475 57.367 49.748 99.41 21.716 16.838 48.976 26.867 78.583 26.867 6.771 0 13.42-.525 19.908-1.535-13.175-7.7-23.897-19.135-30.717-32.854 19.309-9.222 35.355-24.216 45.876-42.745z" fill="#d4d4ff"/></g><g><path d="m452.549 0h-56.493c-4.143 0-7.5 3.357-7.5 7.5s3.357 7.5 7.5 7.5h56.493c24.51 0 44.45 19.94 44.45 44.451v145.478c0 25.171-20.479 45.649-45.649 45.649h-9.352c-24.163 0-43.99-18.874-45.541-42.65l1.266-1.266c2.929-2.93 2.929-7.678 0-10.607-2.93-2.928-7.678-2.928-10.607 0-9.996 9.996-37.445 37.444-47.735 47.734-.55-.997-1.11-1.995-1.685-2.993-2.064-3.591-6.65-4.83-10.24-2.764-3.591 2.064-4.828 6.649-2.764 10.24 14.201 24.704 22.239 52.904 22.239 82.509 0 88.876-70.762 166.217-164.308 166.217-41.622.001-81.31-14.785-111.75-41.636-3.106-2.74-7.846-2.442-10.586.664-2.739 3.106-2.442 7.846.664 10.586 33.183 29.269 76.394 45.387 121.672 45.386 54.877 0 103.158-24.426 136.101-63.628 27.862-33.157 43.207-74.918 43.207-117.589 0-25.068-5.22-49.535-15.52-72.808l37.084-37.083c7.026 25.721 30.585 44.688 58.504 44.688h9.352c33.442 0 60.649-27.207 60.649-60.649v-145.477c-.001-32.782-26.67-59.452-59.451-59.452z"/><path d="m92.269 246.448c-29.179 26.286-32.099 64.489-19.99 101.513 25.169 76.97 110.292 114.29 182.919 83.049 27.385-11.782 34.183-47.632 13.078-68.738-6.134-6.133-13.822-10.142-22.174-11.679.233-6.279-2.08-12.575-6.733-17.229-4.231-4.23-9.771-6.593-15.615-6.763 20.391-77.645-72.949-132.882-131.485-80.153zm136.493 97.524c2.57 2.569 3.118 6.561 1.332 9.705-9.857 17.362-24.583 31.083-42.585 39.681-3.737 1.785-5.32 6.262-3.535 10 1.785 3.736 6.259 5.321 10 3.535 19.412-9.271 35.521-23.704 46.836-41.9 6.37.563 12.284 3.31 16.86 7.885 13.665 13.667 9.276 36.749-8.398 44.353-63.716 27.413-140.197-4.477-162.825-74.179-9.993-30.777-8.53-63.486 15.863-85.459 41.919-37.765 109.088-7.865 109.088 48.56 0 33.13-24.738 60.522-56.63 64.772-4.105.548-6.99 4.319-6.443 8.426.548 4.105 4.327 6.989 8.426 6.443 24.775-3.302 46.935-18.31 59.279-40.146 2.626-4.648 8.975-5.437 12.732-1.676z"/><path d="m193.566 323.442c2.722-3.122 2.396-7.86-.728-10.581-3.122-2.721-7.861-2.396-10.581.728-2.212 2.538-6.121 2.541-8.336 0-2.721-3.124-7.459-3.448-10.581-.728-3.123 2.721-3.449 7.459-.728 10.581 8.186 9.395 22.775 9.388 30.954 0z"/><path d="m129.929 312.861c-3.122-2.721-7.861-2.396-10.581.728-2.211 2.536-6.12 2.543-8.334.001-2.721-3.125-7.458-3.45-10.581-.729-3.124 2.721-3.45 7.458-.729 10.581 8.184 9.397 22.774 9.389 30.953.001 2.721-3.123 2.395-7.861-.728-10.582z"/><path d="m15 331.105c0-92.304 75-165.921 164.779-165.921 29.353 0 58.372 7.728 83.923 22.349 3.594 2.055 8.177.812 10.234-2.785 2.057-3.595.811-8.177-2.785-10.234-.964-.552-1.944-1.073-2.917-1.606l48.088-48.426c2.918-2.939 2.901-7.688-.037-10.607-2.939-2.917-7.688-2.901-10.607.037l-1.619 1.631c-23.771-1.558-42.637-21.381-42.637-45.539v-9.352c0-25.172 20.479-45.65 45.65-45.65h58.984c4.143 0 7.5-3.357 7.5-7.5s-3.357-7.5-7.5-7.5h-58.984c-33.442 0-60.65 27.208-60.65 60.65v9.352c0 27.939 18.996 51.514 44.747 58.52l-37.114 37.374c-23.359-10.31-48.697-15.712-74.275-15.712-96.822-.002-179.78 79.091-179.78 180.919 0 40.964 13.993 81.042 39.4 112.853 1.481 1.854 3.663 2.819 5.865 2.819 1.641 0 3.294-.536 4.676-1.64 3.236-2.585 3.765-7.305 1.18-10.541-23.293-29.163-36.121-65.917-36.121-103.491z"/></g></g></svg>