<svg height="512" viewBox="0 0 128 128" width="512" xmlns="http://www.w3.org/2000/svg"><path d="m119.884 112.119-2.971-4.754a5.147 5.147 0 0 0 3.109-4.718v-.835a5.152 5.152 0 0 0 -4.106-5.037c.25-1.479.29-4.187-1.261-8.161-.781-2-3-3.979-5.358-6.071a39.881 39.881 0 0 1 -4.036-3.923 12.972 12.972 0 0 1 -2.049-3.425c2.788 1.864 7.566 4.383 11.708 3.191a7.742 7.742 0 0 0 4.913-3.685 5.383 5.383 0 0 0 .314-4.295c-.5-1.423-2.064-2.314-3.873-3.347a19.94 19.94 0 0 1 -4.62-3.278 14.684 14.684 0 0 1 -2.71-4.236 11.022 11.022 0 0 0 -2.38-3.65 9.751 9.751 0 0 0 -6.746-2.347v-4.4a2.459 2.459 0 0 0 -3.326-2.3 19.355 19.355 0 0 0 -4.357 2.26v-8.722a1 1 0 0 0 -.348-.759l-26.8-26.795a1 1 0 0 0 -.707-.293h-49.903a3 3 0 0 0 -3 3v100.922a3 3 0 0 0 3 3h101.438a4.8 4.8 0 0 0 4.069-7.342z" fill="#e6e7e8"/><path d="m75.734 108.649 3.662-5.86h.5a4.143 4.143 0 0 1 -4.143-4.142v-.835a4.142 4.142 0 0 1 4.143-4.142h.3a44.92 44.92 0 0 1 -5.846-21.613c0-11.824 9.119-18.329 9.119-18.329a16.591 16.591 0 0 1 3.666-6.453v-10.889l-26.851-26.847h-49.907a2 2 0 0 0 -2 2v100.922a2 2 0 0 0 2 2h68.578a3.8 3.8 0 0 1 -3.221-5.812z" fill="#fa759e"/><g fill="#fff"><path d="m16.278 22.864v2.542a1.956 1.956 0 0 0 1.956 1.956 1.956 1.956 0 0 0 1.957-1.956v-1.616h5.238v17.533a2.363 2.363 0 0 0 2.364 2.363 2.363 2.363 0 0 0 2.363-2.363v-17.533h5.238v1.616a1.956 1.956 0 0 0 1.956 1.956 1.955 1.955 0 0 0 1.956-1.956v-2.542a2.986 2.986 0 0 0 -2.986-2.986h-17.055a2.986 2.986 0 0 0 -2.987 2.986z"/><path d="m76.76 44.494h-34.981a1 1 0 1 1 0-2h34.981a1 1 0 0 1 0 2z"/><path d="m72.76 56.008h-54.009a1 1 0 1 1 0-2h54.009a1 1 0 0 1 0 2z"/><path d="m66.76 67.522h-48.009a1 1 0 0 1 0-2h48.009a1 1 0 0 1 0 2z"/><path d="m66.76 79.036h-48.009a1 1 0 0 1 0-2h48.009a1 1 0 0 1 0 2z"/><path d="m66.76 90.55h-48.009a1 1 0 0 1 0-2h48.009a1 1 0 0 1 0 2z"/><path d="m66.76 102.064h-48.009a1 1 0 0 1 0-2h48.009a1 1 0 1 1 0 2z"/></g><path d="m60.286 9.539v24.849a2 2 0 0 0 2 2h24.849z" fill="#ffd7e5"/><path d="m110.644 93.67s1.381-2.794-.92-8.692c-1.161-2.976-6.447-6.367-9.232-9.719a12.825 12.825 0 0 1 -2.979-6.576s7.417 6.384 13.131 4.742c3.881-1.114 5.47-4.107 4.56-6.687-.73-2.067-5.186-3.074-8.268-6.262-2.8-2.9-2.979-5.958-5.046-7.842a9.15 9.15 0 0 0 -7.072-2.006v-5.481a1.459 1.459 0 0 0 -1.975-1.366 15.818 15.818 0 0 0 -5.6 3.381 16.509 16.509 0 0 0 -3.77 6.566s-9.119 6.5-9.119 18.329a44.92 44.92 0 0 0 5.832 21.613z" fill="#6dc9f7"/><rect fill="#6dc9f7" height="9.119" rx="4.142" width="39.273" x="75.748" y="93.67"/><path d="m110.879 93.67h-30.988a4.142 4.142 0 0 0 -4.143 4.142v.835a4.113 4.113 0 0 0 .161 1.082 4.132 4.132 0 0 1 3.982-3.059h30.988a4.13 4.13 0 0 1 3.981 3.059 4.072 4.072 0 0 0 .161-1.082v-.835a4.141 4.141 0 0 0 -4.142-4.142z" fill="#fff"/><path d="m115.036 108.649-3.662-5.86h-31.974l-3.662 5.86a3.8 3.8 0 0 0 3.221 5.812h32.86a3.8 3.8 0 0 0 3.217-5.812z" fill="#6dc9f7"/><path d="m8.377 99.229a1 1 0 0 0 1-1v-8.679a1 1 0 1 0 -2 0v8.679a1 1 0 0 0 1 1z" fill="#3a2c60"/><path d="m115.884 108.119-2.971-4.754a5.147 5.147 0 0 0 3.109-4.718v-.835a5.152 5.152 0 0 0 -4.106-5.037c.249-1.48.29-4.187-1.261-8.161-.781-2-3-3.979-5.359-6.071a39.851 39.851 0 0 1 -4.034-3.923 12.936 12.936 0 0 1 -2.05-3.425c2.788 1.864 7.571 4.383 11.708 3.191a7.734 7.734 0 0 0 4.913-3.686 5.382 5.382 0 0 0 .314-4.3c-.5-1.422-2.064-2.313-3.872-3.345a19.959 19.959 0 0 1 -4.621-3.279 14.657 14.657 0 0 1 -2.71-4.236 11.022 11.022 0 0 0 -2.38-3.65 9.764 9.764 0 0 0 -6.746-2.347v-4.4a2.461 2.461 0 0 0 -3.326-2.3 19.4 19.4 0 0 0 -4.357 2.261v-8.718a1 1 0 0 0 -.336-.746l-26.807-26.807a1 1 0 0 0 -.707-.293h-49.908a3 3 0 0 0 -3 3v74.245a1 1 0 0 0 2 0v-74.246a1 1 0 0 1 1-1h48.907v23.849a3 3 0 0 0 3 3h23.851v9.512a17.775 17.775 0 0 0 -3.535 6.228 24.647 24.647 0 0 0 -9.25 18.929 45.971 45.971 0 0 0 5.233 20.8 5.136 5.136 0 0 0 -3.834 4.953v.835a5.147 5.147 0 0 0 3.107 4.718l-2.971 4.754a4.74 4.74 0 0 0 -.127 4.87 5.015 5.015 0 0 0 .3.473h-64.681a1 1 0 0 1 -1-1v-10.342a1 1 0 0 0 -2 0v10.344a3 3 0 0 0 3 3h101.438a4.8 4.8 0 0 0 4.069-7.343zm-54.6-73.731v-22.435l23.435 23.435h-22.435a1 1 0 0 1 -1-1zm22.767 20.154a1.012 1.012 0 0 0 .386-.56 15.5 15.5 0 0 1 3.516-6.12 14.835 14.835 0 0 1 5.241-3.145.452.452 0 0 1 .427.053.447.447 0 0 1 .2.377v5.481a1 1 0 0 0 1.164.986 8.206 8.206 0 0 1 6.234 1.759 9.433 9.433 0 0 1 1.924 3.034 16.527 16.527 0 0 0 3.077 4.765 21.85 21.85 0 0 0 5.066 3.625c1.4.8 2.724 1.554 2.978 2.274a3.355 3.355 0 0 1 -.206 2.713 5.782 5.782 0 0 1 -3.687 2.68c-5.122 1.468-12.133-4.479-12.2-4.539a1 1 0 0 0 -1.649.832 13.769 13.769 0 0 0 3.201 7.143 41.111 41.111 0 0 0 4.245 4.14c2.073 1.842 4.217 3.748 4.824 5.3 1.518 3.891 1.329 6.3 1.113 7.329h-29.144a44.459 44.459 0 0 1 -5.411-20.612c0-11.143 8.614-17.457 8.701-17.515zm-7.3 44.105v-.835a3.145 3.145 0 0 1 3.142-3.142h30.988a3.146 3.146 0 0 1 3.143 3.142v.835a3.146 3.146 0 0 1 -3.143 3.142h-30.99a3.146 3.146 0 0 1 -3.142-3.142zm37.514 13.372a2.766 2.766 0 0 1 -2.448 1.443h-32.862a2.8 2.8 0 0 1 -2.373-4.284l3.368-5.389h30.869l3.369 5.389a2.767 2.767 0 0 1 .075 2.841z" fill="#3a2c60"/></svg>