<svg id="Layer_1" enable-background="new 0 0 256 256" height="512" viewBox="0 0 256 256" width="512" xmlns="http://www.w3.org/2000/svg"><g><g><g><path d="m103.917 102.222c1.05 8.49 1.17 17.08.37 25.6l-1.96 20.82c-7.54 10.64-18.01 16.35-30.45 19.02-.6.12-1.2.24-1.81.35v23.93h13.14c5.4 0 9.74 4.56 9.39 10.04-.33 5-4.7 8.79-9.71 8.79h-12.82v22.78c0 5.41-4.55 9.75-10.04 9.39-5-.32-8.78-4.7-8.78-9.71v-22.46h-13.14c-5.4 0-9.74-4.56-9.39-10.04.33-5 4.7-8.79 9.72-8.79h12.81v-23.93c-26.08-4.63-45.71-28.14-44.19-55.85 1.46-26.6 22.62-48.34 49.17-50.49 7.79-.63 15.4.63 22.42 3.35 5.42 2.11 7.35 8.83 4.02 13.61l-.21.29c-2.32 3.35-6.59 4.63-10.44 3.29-3.89-1.34-8.09-2.01-12.46-1.88-18.27.57-33.21 15.53-33.74 33.8-.58 19.69 15.27 35.9 34.84 35.9 13.14 0 21.92-5.61 28.12-15.01 4.04-6.12 6.15-13.25 6.69-20.55.09-1.12.18-2.25.34-3.36l.41-2.94c.93-6.61 2.99-12.99 6.11-18.79z" fill="#ff4a73"/></g><g><path d="m248.777 21.682-8.78 32.76c-1.36 5.1-7.74 6.8-11.47 3.07l-5.33-5.33-30.96 30.95c6.68 8.95 10.64 20.04 10.64 32.04 0 7.26-1.45 14.18-4.07 20.5-8.21 19.79-27.94 32.34-49.36 32.34h-.16c-9.63 0-18.71-2.53-26.57-6.96-2.86-1.62-4.51-4.65-4.51-7.81 0-.9.13-1.81.41-2.7 1.69-5.5 8.08-8.15 13.05-5.25 5.16 3.02 11.15 4.74 17.53 4.74 20.54 0 36.99-17.86 34.63-38.87-1.8-16.11-14.81-28.99-30.94-30.66-18.82-1.94-35.05 11.19-38.05 28.78-.18 1.03-.34 2.07-.55 3.1l-3.1 15.24c-1.12 5.53-2.94 10.92-5.65 15.87-1 1.83-2.07 3.55-3.21 5.15l1.962-20.818c.803-8.523.678-17.108-.373-25.604l-1.588-12.838c2.69-5.01 6.16-9.59 10.37-13.52 8.55-7.95 19.7-13.19 32.07-14.19 12.49-1.01 24.17 2.29 33.75 8.56l31.37-31.36-5.34-5.34c-3.73-3.73-2.03-10.11 3.07-11.47l32.76-8.78c5.099-1.37 9.769 3.3 8.399 8.4z" fill="#5fcdff"/></g><g><path d="m66.247 233.232c0 2.21.73 4.28 1.97 5.94-1.84 2.46-4.84 3.99-8.19 3.77-5-.32-8.78-4.7-8.78-9.71v-22.46h-13.14c-5.4 0-9.74-4.56-9.39-10.04.33-5 4.7-8.79 9.72-8.79h12.81v-23.93c-26.08-4.63-45.71-28.14-44.19-55.85 1.46-26.6 22.62-48.34 49.17-50.49 3.88-.31 7.71-.16 11.44.41-24.86 3.71-44.22 24.68-45.61 50.08-1.52 27.71 18.11 51.22 44.19 55.85v23.93h-12.81c-5.02 0-9.39 3.79-9.72 8.79-.35 5.48 3.99 10.04 9.39 10.04h13.14z" fill="#f973a3"/></g><g fill="#30b6ff"><path d="m216.207 59.172-23.97 23.96c6.68 8.95 10.64 20.04 10.64 32.04 0 7.26-1.45 14.18-4.07 20.5-8.21 19.79-27.94 32.34-49.36 32.34h-.16c-2.52 0-5.01-.17-7.45-.51 18.46-2.51 34.71-14.34 41.97-31.83 2.62-6.32 4.07-13.24 4.07-20.5 0-9.971-2.734-19.313-7.49-27.322-1.738-2.926-1.195-6.672 1.211-9.077l21.268-21.262c2.944-2.943 7.717-2.943 10.661.001.8.8 1.71 1.35 2.68 1.66z"/><path d="m248.777 21.682-8.78 32.76c-1.36 5.1-7.74 6.8-11.47 3.07l-3.43-3.43 8.68-32.4c.63-2.36-.03-4.63-1.43-6.25l8.03-2.15c5.1-1.37 9.77 3.3 8.4 8.4z"/></g></g><path d="m47.247 171.265v16.677h-8.81c-7.225 0-13.247 5.502-13.712 12.535-.239 3.752 1.04 7.325 3.605 10.059 2.525 2.692 6.089 4.237 9.776 4.237h9.14v18.46c0 7.233 5.501 13.252 12.519 13.701.306.02.61.03.913.03 3.416 0 6.635-1.267 9.146-3.618 2.696-2.525 4.243-6.095 4.243-9.793v-18.78h8.82c7.22 0 13.237-5.502 13.702-12.535.239-3.753-1.042-7.325-3.606-10.059-2.526-2.692-6.089-4.236-9.776-4.236h-9.14v-16.676c22.827-5.332 36.599-21.005 41.043-42.843 4.009-19.879 2.653-12.683 3.668-18.467 2.728-15.956 17.516-27.15 33.7-25.473 14.265 1.475 25.778 12.883 27.379 27.125 1 8.907-1.719 17.468-7.653 24.106-5.862 6.557-14.248 10.317-23.007 10.317-5.455 0-10.818-1.449-15.512-4.19-3.376-1.973-7.422-2.285-11.102-.851-10.349 4.028-11.223 18.239-1.829 23.54 8.676 4.895 18.542 7.481 28.532 7.481h.16c23.458 0 44.283-13.663 53.056-34.808 2.903-7.003 4.375-14.416 4.375-22.032 0-11.339-3.252-22.187-9.438-31.585l25.757-25.749 2.502 2.502c5.919 5.921 16.014 3.196 18.161-4.863l8.78-32.758c2.168-8.074-5.217-15.471-13.301-13.3l-32.753 8.778c-8.077 2.153-10.781 12.25-4.867 18.163l2.511 2.511-26.308 26.299c-10.14-5.859-21.65-8.439-33.478-7.485-12.771 1.033-25.012 6.45-34.469 15.252-11.677 10.873-17.283 25.133-18.493 41.236-2.474 33.196-35.834 40.112-52.952 22.483-5.866-6.042-8.96-13.999-8.713-22.408.602-20.728 21.247-35.038 40.896-28.251 10.237 3.538 20.148-6.194 17.022-16.438-1.165-3.817-3.95-6.83-7.644-8.264-35.996-13.986-74.934 12.541-77.026 50.648-1.536 27.99 17.263 52.911 44.183 59.322zm-36.195-58.884c1.802-32.838 35.338-55.598 66.143-43.628 3.005 1.167 4.046 4.927 2.192 7.59-.1.074-2.012 3.494-6.063 2.093-24.793-8.564-50.748 9.512-51.505 35.579-1.123 38.059 48.989 55.512 70.297 23.211 7.224-10.947 7.143-21.969 7.647-25.562.363-1.228.939-19.166 15.664-32.87 8.145-7.582 18.679-12.246 29.662-13.135 11.143-.897 21.944 1.837 31.237 7.92 1.583 1.037 3.679.821 5.019-.518l31.37-31.36c.75-.75 1.172-1.768 1.172-2.829s-.421-2.079-1.172-2.829l-5.34-5.34c-1.553-1.553-.852-4.209 1.276-4.777l32.761-8.78c.001 0 .002 0 .003-.001 2.132-.57 4.068 1.378 3.498 3.501l-8.782 32.766c-.565 2.121-3.222 2.825-4.776 1.271l-5.33-5.33c-1.561-1.562-4.094-1.562-5.656 0l-30.96 30.95c-1.405 1.405-1.566 3.629-.378 5.222 6.442 8.63 9.847 18.882 9.847 29.647 0 6.56-1.267 12.941-3.765 18.967-7.528 18.147-25.453 29.873-45.666 29.873h-.16c-8.615 0-17.123-2.23-24.602-6.449-2.002-1.129-2.947-3.587-2.249-5.845.465-1.506 1.576-2.698 3.05-3.271.817-.319 2.443-.702 4.164.304 5.916 3.456 12.676 5.282 19.547 5.282 11.033 0 21.593-4.733 28.971-12.985 7.365-8.238 10.878-19.293 9.639-30.331-2.016-17.953-16.527-32.332-34.506-34.191-20.343-2.093-38.974 11.988-42.407 32.083-.708 4.253-.172 1.061-3.623 18.221-3.865 19.006-15.484 32.48-36.232 36.918-.554.118-1.11.228-1.672.328-1.908.339-3.299 1.999-3.299 3.938v23.93c0 2.209 1.791 4 4 4h13.14c1.508 0 2.907.607 3.942 1.71 1.036 1.105 1.554 2.552 1.457 4.066-.184 2.787-2.749 5.054-5.719 5.054h-12.82c-2.209 0-4 1.791-4 4v22.78c0 1.516-.608 2.921-1.712 3.955-1.101 1.032-2.557 1.547-4.072 1.444-2.777-.178-5.036-2.743-5.036-5.718v-22.46c0-2.209-1.791-4-4-4h-13.14c-1.508 0-2.907-.607-3.942-1.71-1.036-1.105-1.553-2.552-1.456-4.066.188-2.834 2.703-5.054 5.729-5.054h12.81c2.209 0 4-1.791 4-4v-23.93c0-1.939-1.392-3.6-3.301-3.938-24.692-4.386-42.273-26.609-40.896-51.696z" fill="#5f266d"/></g></svg>