<svg id="Capa_1" enable-background="new 0 0 512 512" height="512" viewBox="0 0 512 512" width="512" xmlns="http://www.w3.org/2000/svg"><g><g><g><path d="m261.191 171.026c0-70.053-56.786-126.84-126.84-126.84-70.043 0-126.84 56.786-126.84 126.84 0 60.965 43.018 111.879 100.345 124.064v62.999c0 2.736-2.215 4.94-4.94 4.94h-10c-14.64 0-26.504 11.864-26.504 26.504 0 7.315 2.966 13.949 7.766 18.738 4.79 4.8 11.413 7.766 18.738 7.766h10.001c2.726 0 4.94 2.204 4.94 4.94v20.332c0 14.64 11.864 26.504 26.494 26.504 7.315 0 13.949-2.966 18.738-7.766 4.8-4.79 7.766-11.413 7.766-18.738v-20.332c0-2.736 2.215-4.94 4.94-4.94h10c14.64 0 26.504-11.864 26.504-26.504 0-7.315-2.966-13.949-7.766-18.738-4.79-4.8-11.423-7.766-18.738-7.766h-10c-2.726 0-4.94-2.205-4.94-4.94v-62.999c57.328-12.185 100.336-63.099 100.336-124.064zm-126.84 76.757c-42.387 0-76.747-34.36-76.747-76.757 0-42.387 34.36-76.747 76.747-76.747 42.397 0 76.757 34.36 76.757 76.747 0 42.397-34.36 76.757-76.757 76.757z" fill="#fe7ab6"/></g></g><g><g><path d="m134.351 44.186c-20.863 0-40.553 5.04-57.909 13.969 11.954-3.738 24.681-5.752 37.868-5.752 70.053 0 126.84 56.786 126.84 126.84 0 49.171-27.977 91.808-68.881 112.851 51.525-16.113 88.922-64.221 88.922-121.068 0-70.053-56.786-126.84-126.84-126.84z" fill="#fe5ca7"/></g></g><g><path d="m145.253 416.609c-2.726 0-4.94 2.676-4.94 5.411v19.289c0 7.325-2.966 13.949-7.766 18.738-2.405 2.405-5.271 4.359-8.457 5.702 3.156 1.333 6.624 2.064 10.261 2.064 7.315 0 13.949-2.966 18.738-7.766 4.8-4.79 7.766-11.413 7.766-18.738v-20.332c0-1.904 1.072-3.547 2.635-4.369-2.805-.21-18.237.001-18.237.001z" fill="#fe5ca7"/></g><g><path d="m194.534 370.795c-4.79-4.8-11.423-7.766-18.738-7.766h-10c-2.728 0-4.94-2.212-4.94-4.94v-63.322s-3.747.459-8.43.756c-6.815.432-12.112 6.112-12.112 12.941v66.659c0 2.71 2.184 4.939 4.894 4.94 4.14.001 8.274-.172 12.416-.172 4.067 0 8.145-.299 12.203.133 11.103 1.183 17.493 9.511 15.256 20.573-1.201 5.938-4.598 12.067-10.299 14.698-.651.301-1.323.551-2.004.741h2.482c14.493 0 26.71-11.413 27.032-25.902.167-7.551-2.829-14.418-7.76-19.339z" fill="#fe5ca7"/></g><g><path d="m404.144 216.91v-73.05c9.7 4.219 21.404 2.375 29.33-5.551 5.181-5.181 7.766-11.954 7.766-18.738s-2.585-13.568-7.766-18.738l-45.774-45.774c-5.551-5.561-14.56-5.561-20.111 0l-45.774 45.774c-10.351 10.341-10.351 27.126 0 37.477 5.171 5.171 11.944 7.756 18.728 7.756 3.617 0 7.225-.742 10.602-2.205v73.05c-57.327 12.185-100.335 63.099-100.335 124.064 0 70.053 56.786 126.84 126.84 126.84 70.043 0 126.84-56.786 126.84-126.84-.001-60.966-43.019-111.88-100.346-124.065zm-26.495 200.811c-42.397 0-76.757-34.36-76.757-76.747 0-42.397 34.36-76.757 76.757-76.757 42.387 0 76.747 34.36 76.747 76.757 0 42.387-34.36 76.747-76.747 76.747z" fill="#62dbfb"/></g><g><path d="m391.027 84.399c-8.678-8.688-18.591-16.837-27.269-25.515l3.831-3.825c5.551-5.561 14.56-5.561 20.111 0l45.774 45.774c5.181 5.171 7.766 11.954 7.766 18.738s-2.585 13.558-7.766 18.738c-7.926 7.926-19.63 9.77-29.33 5.551v72.739c-2.892-.386-5.83-.682-8.813-.882-6.302-.424-11.228-5.596-11.228-11.912v-62.825c0-6.204 4.548-11.532 10.698-12.346 9.087-1.202 17.179-10.662 15.878-21.342-.671-5.581-5.703-8.734-9.631-12.622-3.348-3.327-6.674-6.935-10.021-10.271z" fill="#01d0fb"/></g><g><path d="m419.976 221.379c39.591 21.454 66.476 63.37 66.476 111.568 0 70.053-56.796 126.84-126.84 126.84-14.85 0-29.11-2.555-42.357-7.245 17.957 9.74 38.529 15.271 60.394 15.271 70.043 0 126.84-56.786 126.84-126.84 0-55.202-35.282-102.168-84.513-119.594z" fill="#01d0fb"/></g><g><path d="m134.356 36.674c-74.084 0-134.356 60.271-134.356 134.355 0 30.96 10.787 61.176 30.373 85.083 18.011 21.984 42.678 37.776 69.967 44.916v54.489h-7.427c-18.757 0-34.016 15.259-34.016 34.015 0 18.757 15.259 34.016 34.016 34.016h7.427v17.761c0 18.757 15.259 34.016 34.016 34.016 18.756 0 34.015-15.259 34.015-34.016v-17.761h7.427c18.757 0 34.016-15.259 34.016-34.016 0-18.756-15.259-34.015-34.016-34.015h-7.427v-8.832c0-4.151-3.365-7.515-7.515-7.515s-7.515 3.365-7.515 7.515v11.406c0 6.869 5.588 12.456 12.456 12.456h10.002c10.468 0 18.985 8.516 18.985 18.985 0 10.468-8.517 18.985-18.985 18.985h-10.002c-6.868 0-12.456 5.588-12.456 12.456v20.337c0 10.469-8.516 18.985-18.985 18.985s-18.985-8.516-18.985-18.985v-20.337c0-6.868-5.588-12.456-12.456-12.456h-10.002c-10.468 0-18.985-8.517-18.985-18.985s8.517-18.985 18.985-18.985h10.002c6.868 0 12.456-5.588 12.456-12.456v-63.004c0-3.548-2.482-6.613-5.953-7.351-26.318-5.594-50.26-20.208-67.418-41.15-17.392-21.228-26.969-48.061-26.969-75.557 0-65.796 53.529-119.324 119.325-119.324s119.324 53.528 119.324 119.324c0 27.496-9.578 54.329-26.969 75.557-17.158 20.942-41.1 35.556-67.418 41.151-3.471.738-5.953 3.803-5.953 7.351v17.361c0 4.151 3.365 7.515 7.515 7.515s7.515-3.365 7.515-7.515v-11.42c27.289-7.14 51.955-22.932 69.967-44.916 19.586-23.907 30.373-54.123 30.373-85.083.001-74.085-60.271-134.356-134.354-134.356z"/><path d="m218.623 171.029c0-46.465-37.803-84.268-84.268-84.268-46.466 0-84.268 37.802-84.268 84.268s37.802 84.268 84.268 84.268 84.268-37.803 84.268-84.268zm-84.267 69.237c-38.178 0-69.237-31.06-69.237-69.237s31.06-69.237 69.237-69.237 69.237 31.06 69.237 69.237-31.06 69.237-69.237 69.237z"/><path d="m293.378 340.971c0 46.465 37.802 84.268 84.267 84.268s84.268-37.802 84.268-84.268-37.803-84.268-84.268-84.268-84.267 37.803-84.267 84.268zm84.267-69.237c38.178 0 69.237 31.06 69.237 69.237s-31.06 69.237-69.237 69.237-69.237-31.06-69.237-69.237 31.06-69.237 69.237-69.237z"/><path d="m481.627 255.888c-18.011-21.984-42.678-37.776-69.966-44.916v-57.504c9.878.927 19.808-2.525 27.132-9.847 13.263-13.263 13.263-34.843 0-48.106l-45.773-45.773c-4.106-4.107-9.566-6.368-15.374-6.368-5.807 0-11.267 2.261-15.374 6.368l-11.384 11.385c-2.935 2.935-2.935 7.693.001 10.629 2.934 2.935 7.693 2.934 10.628 0l11.383-11.384c1.268-1.268 2.953-1.966 4.746-1.966s3.478.698 4.745 1.965l45.773 45.773c7.403 7.402 7.403 19.447.001 26.849-5.559 5.556-13.808 7.118-21.017 3.975-2.325-1.013-5.002-.785-7.12.603-2.121 1.389-3.398 3.752-3.398 6.287v73.055c0 3.548 2.482 6.613 5.953 7.351 26.318 5.595 50.26 20.209 67.417 41.151 17.391 21.227 26.969 48.061 26.969 75.557 0 65.796-53.529 119.324-119.324 119.324s-119.325-53.529-119.325-119.325c0-27.496 9.578-54.33 26.969-75.557 17.157-20.942 41.1-35.556 67.417-41.151 3.471-.738 5.953-3.803 5.953-7.351v-73.055c0-2.534-1.277-4.898-3.398-6.287-2.12-1.388-4.797-1.616-7.12-.603-7.209 3.141-15.457 1.581-21.015-3.975-3.586-3.586-5.561-8.354-5.561-13.425s1.975-9.839 5.561-13.424l10.088-10.089c2.935-2.935 2.935-7.693-.001-10.628-2.934-2.936-7.693-2.935-10.628 0l-10.088 10.089c-13.263 13.263-13.263 34.843 0 48.106 7.324 7.323 17.25 10.776 27.131 9.847v57.504c-27.288 7.14-51.955 22.932-69.966 44.916-19.586 23.906-30.373 54.123-30.373 85.083 0 74.084 60.272 134.355 134.355 134.355s134.356-60.271 134.356-134.355c0-30.96-10.787-61.177-30.373-85.083z"/></g></g></svg>