<svg id="Capa_1" enable-background="new 0 0 512 512" height="512" viewBox="0 0 512 512" width="512" xmlns="http://www.w3.org/2000/svg"><g><g><path d="m62.327 215.248s-24.588-2.937-39.419 16.365c-3.635 4.731-6.107 10.25-7.529 16.044l-7.745 31.561c-.689 2.806 1.301 5.553 4.181 5.779 16.867 1.324 67.974 2.088 84.254-34.909z" fill="#dc8758"/></g><g><path d="m220.68 215.248s24.588-2.937 39.419 16.365c3.635 4.731 6.107 10.25 7.529 16.044l7.745 31.561c.689 2.806-1.301 5.553-4.181 5.779-16.867 1.324-67.974 2.088-84.254-34.909z" fill="#dc8758"/></g><g><path d="m271.193 284.995c-2.996.234-7.077.452-11.844.443-.009-.148-.043-.304-.078-.452l-7.164-29.192c-1.311-5.357-3.603-10.463-6.964-14.839-11.349-14.761-28.862-15.456-34.584-15.256l10.124-10.454s24.582-2.935 39.413 16.368c3.638 4.732 6.113 10.255 7.528 16.046l7.745 31.563c.696 2.804-1.301 5.548-4.176 5.773z" fill="#c86d36"/></g><g><path d="m248.372 472.072h-213.741v-99.348c0-59.023 47.848-106.871 106.871-106.871 59.023 0 106.871 47.848 106.871 106.871v99.348z" fill="#537983"/></g><g><path d="m248.372 372.719v99.355h-19.995v-99.355c0-29.503-11.967-56.226-31.302-75.561-17.126-17.136-40.04-28.473-65.564-30.832 3.289-.31 6.618-.47 9.987-.47 29.513 0 56.236 11.957 75.571 31.302 19.336 19.335 31.303 46.059 31.303 75.561z" fill="#3e5959"/></g><g><path d="m87.082 258.948c-13.333 2.262-23.413 16.437-21.173 29.773 1.325 7.893 6.291 14.81 12.393 19.989 22.603 19.188 61.675 14.504 63.202-20.044z" fill="#f5f8f9"/></g><g><path d="m195.925 258.948c13.333 2.262 23.413 16.437 21.173 29.773-1.325 7.893-6.291 14.81-12.393 19.989-22.603 19.188-61.675 14.504-63.202-20.044z" fill="#f5f8f9"/></g><g><path d="m217.1 288.718c-1.33 7.901-6.297 14.817-12.393 19.993-14.917 12.657-36.996 14.926-50.729 5.085 11.591 1.148 24.485-2.688 34.29-11.008 6.096-5.176 11.062-12.101 12.393-19.993 1.358-8.083-1.822-16.484-7.5-22.344l2.761-1.503c13.332 2.259 23.42 16.438 21.178 29.77z" fill="#e8edf2"/></g><g><path d="m141.495 290.868c-51.447 0-93.152-41.706-93.152-93.152v-44.693c0-51.446 41.706-93.152 93.152-93.152 51.446 0 93.152 41.706 93.152 93.152v44.693c0 51.447-41.705 93.152-93.152 93.152z" fill="#fed2a4"/></g><g><path d="m234.645 153.024v44.689c0 51.447-41.7 93.157-93.147 93.157-3.379 0-6.708-.18-9.997-.53 46.748-4.989 83.149-44.559 83.149-92.627v-44.689c0-25.724-10.427-49.008-27.283-65.873-14.646-14.646-34.141-24.434-55.866-26.753 3.289-.35 6.618-.53 9.997-.53 25.724 0 49.008 10.427 65.863 27.283 16.857 16.866 27.284 40.15 27.284 65.873z" fill="#ffbd86"/></g><g><path d="m234.647 200.865h12.58c10.804 0 19.562-8.758 19.562-19.562 0-10.804-8.758-19.562-19.562-19.562h-12.58z" fill="#fed2a4"/></g><g><path d="m48.343 200.865h-12.58c-10.804 0-19.562-8.758-19.562-19.562 0-10.804 8.758-19.562 19.562-19.562h12.58z" fill="#fed2a4"/></g><g><path d="m141.495 39.928c-51.447 0-93.152 41.705-93.152 93.152v28.662c81.63-13.627 93.152-54.449 93.152-54.449s11.522 40.822 93.152 54.449v-28.662c0-51.447-41.705-93.152-93.152-93.152z" fill="#dc8758"/></g><g><path d="m234.645 133.08v28.663c-7.198-1.2-13.847-2.619-19.995-4.199v-24.464c0-48.068-36.401-87.638-83.149-92.627 3.289-.35 6.618-.53 9.997-.53 51.448 0 93.147 41.709 93.147 93.157z" fill="#c86d36"/></g><g><path d="m492.134 472.072h-181.972v-63.737c0-50.25 40.736-90.986 90.986-90.986 50.25 0 90.986 40.736 90.986 90.986z" fill="#c4e2ff"/></g><g><path d="m492.13 408.331v63.744h-19.995v-63.744c0-25.124-10.187-47.868-26.643-64.334-14.256-14.246-33.212-23.794-54.346-26.094 3.279-.37 6.618-.55 9.997-.55 25.134 0 47.878 10.187 64.344 26.643 16.456 16.466 26.643 39.211 26.643 64.335z" fill="#b3dafe"/></g><g><path d="m401.151 341.278c-42.437 0-76.839-34.402-76.839-76.839v-36.866c0-42.437 34.402-76.838 76.839-76.838 42.437 0 76.838 34.402 76.838 76.838v36.866c0 42.438-34.402 76.839-76.838 76.839z" fill="#fed2a4"/></g><g><path d="m477.994 227.576v36.861c0 42.44-34.411 76.841-76.841 76.841-3.339 0-6.638-.21-9.867-.63 37.78-4.839 66.983-37.111 66.983-76.211v-36.861c0-21.225-8.598-40.43-22.504-54.336-11.717-11.717-27.203-19.665-44.479-21.875 3.229-.42 6.528-.63 9.867-.63 21.215 0 40.42 8.598 54.336 22.504 13.897 13.907 22.505 33.112 22.505 54.337z" fill="#ffbd86"/></g><g><path d="m477.989 267.038h10.377c8.912 0 16.136-7.224 16.136-16.136 0-8.912-7.224-16.136-16.136-16.136h-10.377z" fill="#fed2a4"/></g><g><path d="m324.312 267.038h-10.377c-8.912 0-16.136-7.224-16.136-16.136 0-8.912 7.224-16.136 16.136-16.136h10.377z" fill="#fed2a4"/></g><g><path d="m415.49 143.823c-4.266-11.638-15.963-19.689-29.348-18.393-13.293 1.287-24.015 12.009-25.302 25.302-1.296 13.385 6.755 25.082 18.393 29.348 3.535 1.296 6.282 4.043 7.578 7.578 4.266 11.638 15.963 19.689 29.347 18.393 13.293-1.287 24.015-12.009 25.303-25.302 1.296-13.385-6.755-25.082-18.393-29.348-3.535-1.295-6.282-4.043-7.578-7.578z" fill="#537983"/></g><g><path d="m441.463 180.747c-1.09 11.197-8.858 20.565-19.225 24.014 1.649-3.129 2.729-6.608 3.089-10.277 1.29-13.387-6.758-25.084-18.395-29.353-3.539-1.3-6.288-4.049-7.578-7.578-4.269-11.637-15.966-19.695-29.353-18.395-2.1.21-4.139.64-6.079 1.29 4.329-8.208 12.607-14.086 22.224-15.016 13.377-1.3 25.074 6.758 29.343 18.396 1.3 3.529 4.039 6.278 7.578 7.578 11.638 4.258 19.686 15.955 18.396 29.341z" fill="#3e5959"/></g><g><path d="m96.062 204.367c4.141 0 7.498-3.357 7.498-7.498v-17.399c0-4.142-3.357-7.498-7.498-7.498s-7.498 3.357-7.498 7.498v17.399c0 4.141 3.357 7.498 7.498 7.498z"/><path d="m186.929 204.367c4.141 0 7.498-3.357 7.498-7.498v-17.399c0-4.142-3.357-7.498-7.498-7.498s-7.498 3.357-7.498 7.498v17.399c0 4.141 3.357 7.498 7.498 7.498z"/><path d="m141.819 245.284c7.786 0 15.261-2.864 21.048-8.063 3.08-2.768 3.334-7.509.566-10.589s-7.509-3.333-10.589-.566c-3.03 2.723-6.945 4.223-11.025 4.223-4.304 0-8.378-1.647-11.47-4.638-2.976-2.879-7.724-2.799-10.602.178-2.879 2.977-2.8 7.724.177 10.603 5.903 5.708 13.679 8.852 21.895 8.852z"/><path d="m274.909 245.87c-1.744-7.107-4.726-13.44-8.864-18.825-7.274-9.468-16.434-14.384-24.686-16.906.073-.59.131-1.184.194-1.776h5.674c14.921 0 27.06-12.139 27.06-27.06s-12.139-27.06-27.06-27.06h-5.082v-.707-20.456c0-55.499-45.151-100.651-100.65-100.651s-100.65 45.152-100.65 100.651v21.164h-5.081c-14.921 0-27.06 12.139-27.06 27.06s12.139 27.06 27.06 27.06h5.674c.064.596.122 1.195.196 1.788-6.26 1.919-13.047 5.221-19.143 10.839-3.045 2.806-3.238 7.55-.432 10.595 2.807 3.044 7.55 3.239 10.596.432 3.739-3.446 7.935-5.644 11.944-7.043 4.097 14.542 11.386 27.76 21.061 38.845-1.971 2.483-3.604 5.231-4.849 8.143-16.46 6.159-35.039 6.304-45.092 5.775l4.463-18.186c.987-4.021-1.473-8.082-5.495-9.069-4.025-.987-8.082 1.473-9.069 5.496l-5.265 21.453c-.853 3.478-.14 7.135 1.957 10.036 2.098 2.901 5.349 4.725 8.92 5.005 3.119.245 7.285.467 12.14.467 9.214 0 20.908-.799 32.628-3.755.785-.198 1.556-.409 2.324-.621.056.467.115.934.193 1.401.189 1.128.442 2.253.753 3.372-19.88 20.585-32.134 48.58-32.134 79.39v99.348c0 4.141 3.357 7.498 7.498 7.498h213.741c4.141 0 7.498-3.357 7.498-7.498v-99.348c0-30.808-12.254-58.799-32.133-79.383.312-1.121.565-2.248.755-3.378.078-.465.137-.931.193-1.397.766.213 1.541.419 2.325.617 11.721 2.956 23.415 3.755 32.628 3.755 4.854 0 9.02-.222 12.138-.466 3.571-.28 6.823-2.104 8.921-5.006 2.097-2.901 2.81-6.558 1.957-10.036zm-32.764-76.63h5.082c6.652 0 12.064 5.412 12.064 12.063s-5.412 12.063-12.064 12.063h-5.082zm-201.3 24.127h-5.081c-6.652 0-12.064-5.412-12.064-12.063s5.412-12.063 12.064-12.063h5.081zm14.996-60.287c0-47.23 38.424-85.654 85.654-85.654s85.654 38.424 85.654 85.654v19.646c-34.01-6.96-53.284-18.865-63.646-27.973-11.899-10.46-14.789-19.493-14.792-19.497-.911-3.231-3.859-5.462-7.216-5.462s-6.305 2.231-7.216 5.462c-.023.081-2.792 8.591-13.796 18.606-10.357 9.427-29.811 21.741-64.642 28.866zm0 64.636v-29.71c52.035-9.977 75.501-31.158 85.654-45.171 10.153 14.013 33.619 35.193 85.654 45.171v29.71c0 47.229-38.424 85.653-85.654 85.653s-85.654-38.423-85.654-85.653zm153.862 89.763c-.903 5.38-4.402 10.889-9.851 15.515-10.7 9.084-26.037 11.997-37.297 7.087-5.576-2.433-9.505-6.57-11.661-12.157 21.104-1.964 40.335-10.469 55.644-23.464 2.599 3.846 3.917 8.542 3.165 13.019zm-77.592 10.446c-2.156 5.587-6.085 9.724-11.66 12.156-11.26 4.911-26.596 1.999-37.298-7.087-5.449-4.625-8.947-10.135-9.85-15.515-.751-4.474.558-9.17 3.151-13.017 15.314 12.997 34.549 21.502 55.657 23.463zm108.763 74.799v91.85h-32.651v-102.338c0-4.142-3.357-7.498-7.498-7.498s-7.498 3.357-7.498 7.498v102.339h-103.448v-102.339c0-4.142-3.357-7.498-7.498-7.498s-7.498 3.357-7.498 7.498v102.339h-32.654v-91.85c0-24.967 9.264-47.806 24.524-65.28 1.966 2.469 4.24 4.813 6.795 6.982 10.014 8.501 22.723 13.03 34.977 13.03 6.267 0 12.417-1.185 18.022-3.631 6.215-2.712 11.29-6.844 15.056-12.063 3.766 5.218 8.84 9.351 15.056 12.063 5.607 2.446 11.754 3.631 18.022 3.631 12.253 0 24.964-4.53 34.976-13.03 2.554-2.168 4.828-4.512 6.794-6.98 15.26 17.473 24.523 40.311 24.523 65.277zm-18.672-100.757c-1.247-2.919-2.883-5.673-4.86-8.16 9.679-11.093 16.968-24.322 21.061-38.875 5.397 1.897 11.156 5.27 15.75 11.249 2.863 3.727 4.946 8.189 6.192 13.262l6.943 28.294c-10.048.53-28.625.385-45.086-5.77z"/><path d="m363.674 241.891c-4.141 0-7.498 3.357-7.498 7.498v14.352c0 4.142 3.357 7.498 7.498 7.498s7.498-3.357 7.498-7.498v-14.352c0-4.142-3.357-7.498-7.498-7.498z"/><path d="m438.627 241.891c-4.141 0-7.498 3.357-7.498 7.498v14.352c0 4.142 3.357 7.498 7.498 7.498s7.498-3.357 7.498-7.498v-14.352c0-4.142-3.357-7.498-7.498-7.498z"/><path d="m409.633 286.848c-2.258 2.029-5.176 3.147-8.216 3.147-3.208 0-6.244-1.227-8.549-3.457-2.976-2.878-7.724-2.799-10.602.178-2.879 2.977-2.8 7.724.177 10.603 5.116 4.948 11.855 7.673 18.974 7.673 6.746 0 13.224-2.482 18.24-6.989 3.08-2.768 3.333-7.508.565-10.588-2.768-3.082-7.508-3.336-10.589-.567z"/><path d="m484.862 274.536h3.504c13.032 0 23.634-10.602 23.634-23.634s-10.602-23.635-23.634-23.635h-2.884c-.12-33.435-19.799-62.331-48.168-75.85-3.327-3.016-7.257-5.44-11.665-7.056-1.472-.539-2.579-1.647-3.118-3.118-5.601-15.279-20.863-24.854-37.11-23.275-16.928 1.638-30.404 15.114-32.044 32.043-.264 2.725-.207 5.42.13 8.049-22.055 15.16-36.585 40.505-36.688 69.208h-2.883c-13.032 0-23.634 10.603-23.634 23.635s10.602 23.634 23.634 23.634h3.504c2.509 20.924 12.707 39.518 27.676 52.864-25.631 17.799-42.452 47.435-42.452 80.935v63.737c0 4.141 3.357 7.498 7.498 7.498h181.972c4.141 0 7.498-3.357 7.498-7.498v-36.598c0-4.141-3.357-7.498-7.498-7.498s-7.498 3.357-7.498 7.498v29.1h-25.569v-65.168c0-4.142-3.357-7.498-7.498-7.498s-7.498 3.357-7.498 7.498v65.168h-85.843v-65.168c0-4.142-3.357-7.498-7.498-7.498s-7.498 3.357-7.498 7.498v65.168h-25.572v-56.239c0-30.271 16.202-56.818 40.382-71.458 12.622 7.545 27.362 11.899 43.109 11.899 15.758 0 30.508-4.36 43.136-11.915 4.83 2.915 9.393 6.329 13.603 10.232 15.393 14.269 24.794 33.601 26.473 54.437.332 4.128 3.955 7.2 8.076 6.871 4.127-.333 7.204-3.948 6.871-8.076-1.981-24.59-13.071-47.4-31.226-64.23-3.437-3.186-7.085-6.076-10.887-8.705 14.964-13.347 25.156-31.937 27.665-52.855zm.625-32.272h2.879c4.763 0 8.638 3.875 8.638 8.638 0 4.762-3.875 8.637-8.638 8.637h-2.879zm-168.673 17.276h-2.878c-4.763 0-8.638-3.875-8.638-8.637 0-4.763 3.875-8.638 8.638-8.638h2.878zm51.489-108.085c.934-9.648 8.914-17.627 18.563-18.562 9.315-.894 18.355 4.701 21.584 13.51 2.052 5.598 6.44 9.986 12.037 12.038 8.871 3.252 14.427 12.128 13.511 21.585-.935 9.648-8.915 17.627-18.563 18.562-9.458.909-18.333-4.64-21.585-13.511-2.052-5.598-6.44-9.985-12.037-12.037-8.87-3.251-14.426-12.127-13.51-21.585zm32.847 182.325c-38.235 0-69.341-31.105-69.341-69.34v-36.866c0-22.298 10.589-42.159 26.994-54.849 4.107 6.468 10.275 11.62 17.849 14.397 1.471.539 2.579 1.647 3.118 3.118 5.198 14.181 18.717 23.444 33.626 23.444 18.093 0 33.778-14.155 35.527-32.212.128-1.32.175-2.633.158-3.935 13.181 12.628 21.408 30.385 21.408 50.037v36.866c.002 38.234-31.104 69.34-69.339 69.34z"/></g></g></svg>