<svg height="511pt" viewBox="-5 0 511 511.99991" width="511pt" xmlns="http://www.w3.org/2000/svg"><path d="m245.472656 21.996094c-135.296875 0-244.972656 109.675781-244.972656 244.972656 0 135.292969 109.675781 244.96875 244.972656 244.96875 135.292969 0 244.96875-109.675781 244.96875-244.96875 0-135.296875-109.679687-244.972656-244.96875-244.972656zm0 0" fill="#104a7c"/><path d="m266.664062 342.722656-46.730468-151.171875c-.941406-3.042969-.570313-6.339843 1.019531-9.097656l60.40625-104.625c.945313-1.636719 3.042969-2.199219 4.683594-1.253906l13.988281 8.078125c6.570312 3.792968 15.0625 1.414062 18.640625-5.429688 3.367187-6.4375.765625-14.410156-5.523437-18.042968l-13.660157-7.886719c-1.640625-.949219-2.203125-3.042969-1.257812-4.683594l16.421875-28.445313c3.710937-6.425781 1.507812-14.648437-4.921875-18.359374-6.429688-3.714844-14.648438-1.511719-18.359375 4.917968l-16.425782 28.441406c-.945312 1.640626-3.042968 2.203126-4.679687 1.257813l-13.601563-7.851563c-6.410156-3.703124-14.804687-1.863281-18.625 4.480469-3.886718 6.457031-1.707031 14.824219 4.792969 18.578125l13.988281 8.074219c1.640626.949219 2.199219 3.046875 1.253907 4.683594l-60.359375 104.546875c-1.605469 2.777344-4.300782 4.753906-7.433594 5.449218l-154.40625 34.152344c-11.199219 2.476563-21.648438 6.683594-31.046875 12.417969-2.414063 12.703125-3.847656 25.75-4.21875 39.066406 10.699219-13.414062 25.070313-21.695312 41.070313-25.234375l142.730468-31.570312c5.8125-1.285156 11.636719 2.101562 13.394532 7.789062l43.171874 139.660156c15.28125 49.433594-22.503906 95.105469-75.074218 95.4375-.183594.003907-.367188.003907-.550782.003907-33.949218 0-60.898437-19.789063-72.148437-53.019531-2.136719-6.3125-8.628906-10.175782-15.285156-8.886719-18.644531 3.605469-36.132813 1.257812-50.925781-6.324219 6.074218 11.941406 13.105468 23.308594 20.980468 34.023438 7.738282.964843 15.730469 1.089843 23.886719.3125 16.976563 37.8125 51.871094 60.78125 93.5 60.777343h.710937c70.054688-.441406 121.3125-63.238281 100.59375-130.265625zm0 0" fill="#fc86bf"/><g fill="#f754b1"><path d="m244.355469 375.023438c-1.253907 41.5625-37.539063 70.820312-78.453125 71.078124-.183594.003907-.367188.003907-.550782.003907-33.953124 0-60.898437-19.789063-72.148437-53.019531-2.136719-6.3125-8.628906-10.175782-15.285156-8.886719-18.644531 3.605469-36.132813 1.257812-50.925781-6.324219 6.074218 11.941406 13.105468 23.308594 20.980468 34.023438 7.738282.964843 15.730469 1.089843 23.886719.3125 16.976563 37.8125 51.871094 60.78125 93.5 60.777343h.710937c61.039063-.386719 108.957032-48.460937 104.976563-106.839843-3 11.785156-17.238281 16.503906-26.691406 8.875zm0 0"/><path d="m105.164062 220.742188c-10.117187-4.894532-12.675781-18.152344-4.96875-26.433594l-64.320312 14.226562c-11.199219 2.476563-21.648438 6.683594-31.046875 12.417969-2.414063 12.703125-3.847656 25.75-4.21875 39.066406 10.683594-13.398437 25.046875-21.691406 41.070313-25.234375zm0 0"/><path d="m198.03125 208.371094c-1.5-4.863282-6.480469-7.761719-11.449219-6.660156l-145.117187 32.097656c-16.417969 3.632812-30.488282 12.128906-40.800782 24.578125-1.496093 43.488281 8.332032 84.703125 27.097657 120.976562 25.382812 12.40625 49.3125 5.585938 52.714843 5.585938 5.335938 0 10.066407 3.398437 11.78125 8.453125 22.960938 67.828125 105.769532 67.304687 139.300782 21.539062 13.558594-18.5 17.339844-42.039062 10.371094-64.574218zm-32.304688 209.847656h-.140624c-.304688-.097656-33.382813 3.105469-45.972657-34.078125-5.683593-16.792969-21.414062-28.074219-39.136719-28.074219-7.484374 0-10.054687 1.90625-19.46875 1.90625-53.839843 0-68.261718-83.804687-13.304687-95.960937l127.933594-28.296875 38.695312 125.179687c9.84375 31.855469-15.117187 59.113281-48.605469 59.324219zm0 0"/></g><path d="m313.148438 61.179688-13.660157-7.890626c-.710937-.40625-1.203125-1.039062-1.476562-1.746093-11.980469.984375-19.074219 13.984375-13.328125 24.59375.464844.050781.929687.1875 1.359375.4375l13.988281 8.074219c6.570312 3.796874 15.0625 1.417968 18.644531-5.425782 3.363281-6.4375.761719-14.414062-5.527343-18.042968zm0 0" fill="#fcacd6"/><path d="m216.417969 375.207031c-1.339844 24.320313-23.117188 42.839844-50.691407 43.011719h-.140624c-.304688-.097656-33.382813 3.105469-45.972657-34.078125-5.683593-16.792969-21.414062-28.074219-39.136719-28.074219-7.484374 0-10.054687 1.90625-19.46875 1.90625-53.839843 0-68.261718-83.804687-13.304687-95.960937l62.546875-13.835938c-11.148438-4.84375-14.300781-19.0625-6.375-28.171875l-62.410156 13.804688c-16.417969 3.632812-30.488282 12.128906-40.800782 24.578125-1.496093 43.488281 8.332032 84.703125 27.097657 120.976562 25.382812 12.40625 49.3125 5.585938 52.714843 5.585938 5.332032 0 10.066407 3.398437 11.777344 8.453125 22.960938 67.828125 105.773438 67.304687 139.304688 21.539062 8.488281-11.585937 13.144531-25.144531 13.726562-39.195312-7.390625 9.683594-21.902344 9.332031-28.867187-.539063zm0 0" fill="#f240ae"/><path d="m501.214844 115.925781-12.210938-65.980469c-1.539062-8.324218-10.441406-13.234374-18.179687-10.496093l-63.242188 22.417969c-7 2.480468-10.660156 10.164062-8.179687 17.160156 2.484375 7.011718 10.175781 10.65625 17.160156 8.179687l23.246094-8.238281c2.203125-.78125 4.183594 1.601562 3.015625 3.625l-71.9375 124.601562c-1.855469 3.214844-4.976563 5.503907-8.601563 6.304688l-153.636718 33.984375c-20.4375 4.519531-38.414063 14.773437-51.984376 29.648437-29.632812 32.492188-34.238281 81.605469-11.460937 122.210938 20.519531 36.582031 57.929687 55.78125 99.429687 51.816406 39.757813 88.554688 166.945313 76.027344 194.75-9.644531 6.21875-19.148437 6.238282-39.84375.054688-59.84375l-46.5-150.425781c-1.085938-3.519532-.660156-7.332032 1.183594-10.523438l71.671875-124.136718c1.167969-2.023438 4.222656-1.5 4.648437.796874l4.335938 23.433594c1.359375 7.335938 8.402344 12.117188 15.664062 10.773438 7.300782-1.351563 12.121094-8.363282 10.773438-15.664063zm-87.402344 317.289063c-20.585938 63.417968-121.996094 75.140625-147.835938-1.183594-2.160156-6.382812-8.703124-10.160156-15.285156-8.886719-34.636718 6.699219-65.304687-7.117187-82.039062-36.953125-14.230469-25.367187-17.3125-63.320312 7.878906-90.941406 9.8125-10.757812 22.925781-18.199219 37.925781-21.515625l141.113281-31.214844c6.722657-1.484375 13.464844 2.433594 15.5 9.011719l42.679688 138.078125c4.539062 14.675781 4.558594 29.753906.0625 43.605469zm0 0" fill="#409ff5"/><path d="m358.164062 482.628906c-39.433593 9.542969-77.964843-8.585937-92.1875-50.597656-2.152343-6.359375-8.679687-10.164062-15.285156-8.886719-34.636718 6.699219-65.304687-7.117187-82.039062-36.953125-14.230469-25.367187-17.3125-63.320312 7.878906-90.941406 9.8125-10.757812 22.925781-18.199219 37.925781-21.515625l59.3125-13.121094c-10.15625-4.894531-12.675781-18.160156-5.007812-26.425781l-60.113281 13.296875c-20.4375 4.519531-38.414063 14.773437-51.980469 29.648437-29.636719 32.492188-34.242188 81.605469-11.464844 122.210938 20.519531 36.582031 57.933594 55.78125 99.429687 51.816406 22.804688 50.789063 75.554688 70.46875 124.613282 56.433594-11.308594-2.242188-17.007813-15.054688-11.082032-24.964844zm0 0" fill="#0e8ddb"/><path d="m501.214844 115.925781-7.242188-39.125c-12.722656-8.480469-29.78125 3.421875-25.304687 18.632813.851562.242187 1.578125.914062 1.773437 1.953125l4.335938 23.429687c1.355468 7.335938 8.402344 12.121094 15.664062 10.773438 7.300782-1.351563 12.121094-8.363282 10.773438-15.664063zm0 0" fill="#67bdf9"/><path d="m414.707031 389.316406-42.683593-138.078125c-2.171876-7.023437-9.496094-11.28125-16.671876-9.695312l-141.113281 31.214843c-15.199219 3.363282-28.496093 10.90625-38.449219 21.820313-42.148437 46.210937-10.535156 131.226563 57.992188 131.226563 10.777344 0 16.660156-1.90625 19.46875-1.90625 5.335938 0 10.066406 3.398437 11.78125 8.453124 6.003906 17.734376 16.164062 31.519532 30.203125 40.964844 54.765625 36.851563 142.179687-10.546875 119.472656-84zm-122.316406 33.773438c-5.746094-16.972656-21.8125-28.070313-39.207031-28.070313-7.363282 0-10.027344 1.898438-19.402344 1.898438-17.753906 0-31.867188-8.425781-40.808594-24.367188-16.226562-28.929687-5.261718-64.34375 27.507813-71.589843l127.933593-28.296876 38.695313 125.179688c17.601563 56.972656-73.921875 86.675781-94.71875 25.246094zm0 0" fill="#0e8ddb"/><path d="m347.625 456.378906c-21.769531 3.707032-45.792969-5.398437-55.234375-33.289062-5.746094-16.972656-21.8125-28.070313-39.207031-28.070313-7.363282 0-10.027344 1.898438-19.402344 1.898438-54.101562 0-68.148438-83.832031-13.304688-95.957031l56.324219-12.457032c-10.773437-5.667968-12.890625-20.152344-4.203125-28.65625l-58.359375 12.910156c-15.199219 3.363282-28.496093 10.90625-38.449219 21.820313-42.148437 46.210937-10.535156 131.226563 57.992188 131.226563 10.777344 0 16.660156-1.90625 19.46875-1.90625 5.335938 0 10.066406 3.398437 11.78125 8.453124 14.167969 41.851563 53.074219 60.765626 92.53125 51.445313-11.894531-3.304687-16.898438-17.347656-9.9375-27.417969zm0 0" fill="#057ec9"/><path d="m228.957031 311.777344 25.726563-7.800782-20.574219-66.5625-26.28125 6.007813zm0 0" fill="#fc86bf"/><path d="m208.800781 243.199219-28.234375 6.457031 21.703125 70.210938 27.640625-8.378907zm0 0" fill="#f754b1"/></svg>