<svg height="512" viewBox="0 0 512 512" width="512" xmlns="http://www.w3.org/2000/svg"><g id="BULINE"><circle cx="256" cy="256" fill="#d9e76c" r="256"/></g><g id="Icons"><path d="m123.71 175.75h265.52a0 0 0 0 1 0 0v189.49a132.76 132.76 0 0 1 -132.76 132.76 132.76 132.76 0 0 1 -132.76-132.76v-189.49a0 0 0 0 1 0 0z" fill="#e19893"/><path d="m389.23 175.75s-137.75 116.39-265.52 107.73v55.79l265.52.55z" fill="#9a4242"/><path d="m123.71 175.75s40.16 141.31 265.52 142.94v50.92s-119.65 107.73-265.52-4.37z" fill="#bf6d68"/><path d="m283.8 495a132.87 132.87 0 0 1 -160.9-129.76v-189.49h56.27v189.49a132.67 132.67 0 0 0 104.63 129.76z" fill="#c78483"/><path d="m179.17 365.24a133 133 0 0 0 4.88 35.76c-19.65-8-40.13-19.59-61.15-35.75v-189.5s11.42 40.2 56.27 77.94z" fill="#a85e5e"/><ellipse cx="256.47" cy="156.66" fill="#df8076" rx="137.81" ry="146.16"/><path d="m269.4 302.18c-4.25.42-8.57.64-12.93.64-76.12 0-137.82-65.44-137.82-146.16s61.7-146.16 137.82-146.16c4.36 0 8.68.22 12.93.64-70 6.91-124.88 69.43-124.88 145.52s54.84 138.6 124.88 145.52z" fill="#bf6d68"/><circle cx="256.47" cy="164.69" fill="#cf5151" r="112.17"/><circle cx="354.23" cy="184.29" fill="#f3d3b2" r="24.16"/><circle cx="354.23" cy="184.29" fill="#d9bda0" r="8.54"/><path d="m351 117c-.22-32-42.36-58.07-94.58-58.07s-94.2 26.07-94.42 58.07v63.7a88.88 88.88 0 0 0 89.05 89.3h10.73a89 89 0 0 0 89.22-89.3z" fill="#f3d3b2"/><path d="m197 183.05v-63.05c.2-30 38.5-55.73 87.16-58.12a148.92 148.92 0 0 0 -27.71-2.75c-52.25 0-94.24 25.87-94.45 57.87v43.22c-2 0-1.37-.09-2-.09a24.17 24.17 0 1 0 -.14 48.33 24 24 0 0 0 5.89-.91 89.23 89.23 0 0 0 85.3 62.45h10.73c1.27 0 2.55.12 3.8.06a89.35 89.35 0 0 1 -68.58-87.01z" fill="#d9bda0"/><path d="m161 192.44a7.94 7.94 0 0 1 -2.44.39 8.5 8.5 0 0 1 -8.48-8.54 8.38 8.38 0 0 1 8.34-8.54 9.85 9.85 0 0 1 1.59.19v4.76a89.08 89.08 0 0 0 .99 11.74z" fill="#bda38c"/><rect fill="#d9bda0" height="13.35" rx="6.68" width="22.78" x="241.73" y="191.75"/><rect fill="#f7e3d1" height="21.8" rx="10.9" transform="matrix(.688 .725 -.725 .688 176.9 -202.25)" width="35.93" x="305.89" y="93.87"/><ellipse cx="213.76" cy="208.02" fill="#f6b2bb" rx="15.41" ry="9.32"/><ellipse cx="299.76" cy="208.02" fill="#f6b2bb" rx="15.41" ry="9.32"/><g fill="#634c35"><path d="m213.64 191.84a19.85 19.85 0 0 1 -14.12-5.84 5.42 5.42 0 0 1 7.66-7.66 9.13 9.13 0 0 0 12.92 0 5.42 5.42 0 0 1 7.66 7.66 19.85 19.85 0 0 1 -14.12 5.84z"/><path d="m253.12 232.5a19.91 19.91 0 0 1 -14.12-5.83 5.42 5.42 0 0 1 7.66-7.67 9.12 9.12 0 0 0 12.91 0 5.42 5.42 0 0 1 7.67 7.67 19.93 19.93 0 0 1 -14.12 5.83z"/><path d="m299.9 191.84a19.83 19.83 0 0 1 -14.12-5.84 5.42 5.42 0 0 1 7.66-7.66 9.11 9.11 0 0 0 12.91 0 5.42 5.42 0 0 1 7.65 7.66 19.83 19.83 0 0 1 -14.1 5.84z"/><path d="m220.57 101.46a5.42 5.42 0 1 1 0-10.84c43.7 0 58.09-21.17 58.68-22.07a5.42 5.42 0 0 1 9.13 5.83c-.7 1.11-17.74 27.08-67.81 27.08z"/><path d="m243.83 122.47a5.42 5.42 0 0 1 0-10.84c25.81 0 34.5-12.56 34.58-12.69a5.42 5.42 0 0 1 9.15 5.8c-.46.73-11.56 17.73-43.73 17.73z"/></g><rect fill="#d7a0a0" height="52.01" rx="14.51" width="29.02" x="339.62" y="326.81"/></g></svg>