<svg id="Capa_1" enable-background="new 0 0 512 512" height="512" viewBox="0 0 512 512" width="512" xmlns="http://www.w3.org/2000/svg"><g><g><path d="m361.574 355.671h48.314c47.336 0 85.71-38.374 85.71-85.71v-124.486c0-60.678-49.189-109.867-109.867-109.867-60.678 0-109.867 49.189-109.867 109.867v124.486c0 47.337 38.374 85.71 85.71 85.71z" fill="#537983"/></g><g><path d="m495.6 145.471v124.49c0 47.334-38.377 85.711-85.711 85.711h-20.082c47.334 0 85.711-38.377 85.711-85.711v-124.49c0-57.295-43.86-104.337-99.829-109.398 3.304-.311 6.657-.462 10.041-.462 60.679 0 109.87 49.182 109.87 109.86z" fill="#3e5959"/></g><g><path d="m102.111 355.671h48.314c47.336 0 85.71-38.374 85.71-85.71v-124.486c0-60.678-49.189-109.867-109.867-109.867-60.678 0-109.867 49.189-109.867 109.867v124.486c.001 47.337 38.374 85.71 85.71 85.71z" fill="#537983"/></g><g><path d="m236.137 145.471v124.49c0 47.334-38.377 85.711-85.711 85.711h-20.082c47.334 0 85.711-38.377 85.711-85.711v-124.49c0-57.295-43.86-104.337-99.829-109.398 3.304-.311 6.657-.462 10.041-.462 60.679 0 109.87 49.182 109.87 109.86z" fill="#3e5959"/></g><g><path d="m221.273 476.391h-190.009v-87.417c0-52.469 42.535-95.004 95.004-95.004 52.469 0 95.004 42.535 95.004 95.004v87.417z" fill="#fe76a8"/></g><g><path d="m221.265 388.976v87.413h-16.942v-87.413c0-26.234-10.632-49.987-27.814-67.18-15.332-15.332-35.875-25.444-58.739-27.454 2.8-.25 5.631-.38 8.501-.38 26.234 0 49.987 10.642 67.18 27.834 17.182 17.192 27.814 40.946 27.814 67.18z" fill="#fe5694"/></g><g><g><path d="m480.736 476.391h-190.009v-87.417c0-52.469 42.535-95.004 95.004-95.004 52.469 0 95.004 42.535 95.004 95.004v87.417z" fill="#fedf30"/></g><g><path d="m480.728 388.976v87.413h-16.942v-87.413c0-26.234-10.632-49.987-27.814-67.18-15.332-15.332-35.875-25.444-58.739-27.454 2.8-.25 5.631-.38 8.501-.38 26.234 0 49.987 10.642 67.18 27.834 17.182 17.192 27.814 40.946 27.814 67.18z" fill="#fac600"/></g></g><g><path d="m126.269 304.421c-48.767 0-88.301-39.533-88.301-88.3v-53.995l88.3-51.009 88.3 51.009v53.995c.001 48.767-39.532 88.3-88.299 88.3z" fill="#fed2a4"/></g><g><path d="m214.569 162.13v53.991c0 48.77-39.532 88.302-88.302 88.302-3.394 0-6.748-.191-10.041-.572 44.04-4.98 78.26-42.353 78.26-87.729v-65.589z" fill="#ffbd86"/></g><g><path d="m214.569 219.106h11.925c10.241 0 18.543-8.302 18.543-18.543 0-10.241-8.302-18.543-18.543-18.543h-11.925z" fill="#fed2a4"/></g><g><path d="m37.968 219.106h-11.924c-10.241 0-18.543-8.302-18.543-18.543 0-10.241 8.302-18.543 18.543-18.543h11.925v37.086z" fill="#fed2a4"/></g><g><path d="m38.21 163.759h176.117v-9.418c0-48.633-39.425-88.059-88.059-88.059-48.633 0-88.059 39.425-88.059 88.059v9.418z" fill="#537983"/></g><g><path d="m83.202 191.324c-4.143 0-7.501 3.358-7.501 7.501v16.492c0 4.143 3.358 7.501 7.501 7.501s7.501-3.358 7.501-7.501v-16.492c0-4.143-3.358-7.501-7.501-7.501z"/><path d="m169.336 191.324c-4.143 0-7.501 3.358-7.501 7.501v16.492c0 4.143 3.358 7.501 7.501 7.501s7.501-3.358 7.501-7.501v-16.492c0-4.143-3.358-7.501-7.501-7.501z"/><path d="m136.762 242.702c-2.8 2.515-6.418 3.901-10.187 3.901-3.977 0-7.742-1.522-10.601-4.286-2.979-2.881-7.728-2.799-10.606.179-2.88 2.978-2.8 7.727.179 10.606 5.671 5.483 13.139 8.503 21.029 8.503 7.478 0 14.656-2.75 20.214-7.745 3.081-2.769 3.334-7.512.565-10.593-2.767-3.081-7.511-3.336-10.593-.565z"/><path d="m243.637 180.982v-35.506c0-64.717-52.651-117.368-117.368-117.368s-117.368 52.651-117.368 117.368v35.506c-5.45 4.777-8.901 11.782-8.901 19.581 0 7.8 3.451 14.804 8.901 19.581v49.817c0 26.465 11.093 50.383 28.867 67.366-8.892 15.176-14.004 32.823-14.004 51.648v87.416c0 4.143 3.358 7.501 7.501 7.501h190.009c4.143 0 7.501-3.358 7.501-7.501v-36.285c0-4.143-3.358-7.501-7.501-7.501s-7.501 3.358-7.501 7.501v28.784h-27.711v-61.781c0-4.143-3.358-7.501-7.501-7.501s-7.501 3.358-7.501 7.501v61.781h-89.58v-61.781c0-4.143-3.358-7.501-7.501-7.501s-7.501 3.358-7.501 7.501v61.781h-27.712v-79.915c0-37.544 23.775-69.627 57.055-82.021 9.571 3.217 19.808 4.969 30.449 4.969 10.637 0 20.871-1.75 30.438-4.965 33.283 12.392 57.065 44.471 57.065 82.018v16.613c0 4.143 3.358 7.501 7.501 7.501s7.501-3.358 7.501-7.501v-16.613c0-18.825-5.114-36.471-14.008-51.646 17.775-16.983 28.871-40.901 28.871-67.367v-49.817c5.45-4.777 8.901-11.782 8.901-19.581-.001-7.801-3.453-14.806-8.902-19.583zm-219.734-35.506c0-56.445 45.921-102.366 102.366-102.366s102.366 45.921 102.366 102.366v29.139c-.707-.058-1.419-.095-2.141-.095h-4.424v-10.76c0-4.143-3.358-7.501-7.501-7.501h-176.6c-4.143 0-7.501 3.358-7.501 7.501v10.76h-4.423c-.721 0-1.434.037-2.141.095v-29.139zm-8.901 55.087c0-6.089 4.953-11.042 11.042-11.042h4.423v22.083h-4.423c-6.089.001-11.042-4.952-11.042-11.041zm31.414 124.217c-13.907-14.123-22.513-33.479-22.513-54.819v-43.449c.707.058 1.42.095 2.141.095h5c3.359 30.713 21.305 57.088 46.729 72.081-12.12 6.535-22.779 15.442-31.357 26.092zm79.853-27.86c-44.552 0-80.799-36.247-80.799-80.799v-44.861h161.598v44.861c0 44.553-36.247 80.799-80.799 80.799zm102.366-26.959c0 21.342-8.605 40.702-22.516 54.825-8.581-10.649-19.242-19.556-31.363-26.092 25.429-14.991 43.379-41.37 46.738-72.086h5c.721 0 1.434-.037 2.141-.095zm-2.141-58.356h-4.424v-22.083h4.424c6.089 0 11.042 4.953 11.042 11.042-.001 6.088-4.953 11.041-11.042 11.041z"/></g><g><path d="m385.731 304.421c-48.767 0-88.301-39.533-88.301-88.3v-53.995l88.3-51.009 88.301 51.009v53.995c.001 48.767-39.533 88.3-88.3 88.3z" fill="#fed2a4"/></g><g><path d="m474.032 162.13v53.991c0 48.77-39.532 88.302-88.302 88.302-3.394 0-6.748-.191-10.041-.572 44.04-4.98 78.26-42.353 78.26-87.729v-65.589z" fill="#ffbd86"/></g><g><path d="m474.032 219.106h11.925c10.241 0 18.543-8.302 18.543-18.543 0-10.241-8.302-18.543-18.543-18.543h-11.925z" fill="#fed2a4"/></g><g><path d="m297.431 219.106h-11.925c-10.241 0-18.543-8.302-18.543-18.543 0-10.241 8.302-18.543 18.543-18.543h11.925z" fill="#fed2a4"/></g><g><path d="m297.673 163.759h176.117v-9.418c0-48.633-39.425-88.059-88.059-88.059-48.633 0-88.059 39.425-88.059 88.059v9.418z" fill="#537983"/></g><g><path d="m342.664 222.818c4.143 0 7.501-3.358 7.501-7.501v-16.492c0-4.143-3.358-7.501-7.501-7.501s-7.501 3.358-7.501 7.501v16.492c0 4.143 3.358 7.501 7.501 7.501z"/><path d="m428.798 222.818c4.143 0 7.501-3.358 7.501-7.501v-16.492c0-4.143-3.358-7.501-7.501-7.501s-7.501 3.358-7.501 7.501v16.492c0 4.143 3.358 7.501 7.501 7.501z"/><path d="m386.038 261.605c7.477 0 14.656-2.75 20.215-7.744 3.082-2.769 3.335-7.512.566-10.594s-7.511-3.335-10.593-.566c-2.8 2.516-6.419 3.902-10.188 3.902-3.977 0-7.741-1.522-10.599-4.286-2.979-2.881-7.728-2.8-10.607.178s-2.8 7.727.178 10.607c5.67 5.483 13.138 8.503 21.028 8.503z"/><path d="m503.099 180.982v-35.506c0-64.717-52.651-117.368-117.368-117.368-23.401 0-45.998 6.868-65.35 19.862-3.44 2.31-4.355 6.97-2.046 10.409 2.309 3.441 6.969 4.355 10.409 2.046 16.87-11.328 36.576-17.315 56.987-17.315 56.445 0 102.366 45.921 102.366 102.366v29.139c-.707-.058-1.419-.095-2.141-.095h-4.423v-10.76c0-4.143-3.358-7.501-7.501-7.501h-176.601c-4.143 0-7.501 3.358-7.501 7.501v10.76h-4.424c-.721 0-1.434.037-2.141.095v-29.139c0-23.134 7.527-44.961 21.77-63.119 2.557-3.26 1.987-7.975-1.273-10.532-3.26-2.558-7.976-1.986-10.532 1.273-16.333 20.826-24.968 45.854-24.968 72.378v35.506c-5.45 4.777-8.901 11.782-8.901 19.581 0 7.8 3.451 14.804 8.901 19.581v49.817c0 26.466 11.094 50.384 28.869 67.366-8.893 15.176-14.007 32.823-14.007 51.647v87.416c0 4.143 3.358 7.501 7.501 7.501h190.009c4.143 0 7.501-3.358 7.501-7.501v-87.416c0-18.824-5.109-36.473-14.001-51.649 17.772-16.983 28.863-40.901 28.863-67.365v-49.817c5.45-4.777 8.901-11.782 8.901-19.581.002-7.798-3.449-14.803-8.899-19.58zm-198.167-9.722h161.598v44.861c0 44.552-36.247 80.799-80.799 80.799s-80.799-36.247-80.799-80.799zm-30.467 29.303c0-6.089 4.953-11.042 11.042-11.042h4.424v22.083h-4.424c-6.09.001-11.042-4.952-11.042-11.041zm8.9 69.398v-43.449c.707.058 1.419.095 2.141.095h5c3.36 30.72 21.313 57.101 46.747 72.092-12.126 6.537-22.788 15.444-31.37 26.098-13.912-14.125-22.518-33.491-22.518-54.836zm189.869 198.929h-27.711v-61.781c0-4.143-3.358-7.501-7.501-7.501s-7.501 3.358-7.501 7.501v61.781h-89.58v-61.781c0-4.143-3.358-7.501-7.501-7.501s-7.501 3.358-7.501 7.501v61.781h-27.711v-79.915c0-37.547 23.781-69.626 57.064-82.018 9.568 3.215 19.802 4.966 30.439 4.966 10.649 0 20.894-1.754 30.47-4.975 33.271 12.399 57.033 44.49 57.033 82.028zm14.863-198.929c0 21.343-8.607 40.7-22.517 54.824-8.581-10.652-19.248-19.55-31.372-26.086 25.434-14.99 43.388-41.372 46.748-72.092h5c.722 0 1.434-.037 2.141-.095zm-2.141-58.356h-4.423v-22.083h4.423c6.089 0 11.042 4.953 11.042 11.042 0 6.088-4.953 11.041-11.042 11.041z"/></g></g></svg>