<svg id="Capa_1" enable-background="new 0 0 512 512" height="512" viewBox="0 0 512 512" width="512" xmlns="http://www.w3.org/2000/svg"><g><g><path d="m131.174 329.405c-7.248-2.174-12.211-8.845-12.211-16.413v-29.231h-51.405v29.231c0 7.567-4.963 14.238-12.211 16.413l-29.445 8.833c-10.871 3.262-18.316 13.268-18.316 24.619 0 3.634 2.946 10.732 6.579 10.732h158.191z" fill="#fbbd80"/><path d="m118.963 312.993v-29.231h-51.405v29.231c0 7.567-4.963 14.238-12.211 16.412l-29.444 8.834 7.419 24.604 29.401-8.818c10.477-3.14 19.137-10.116 24.511-19.199 2.801-4.733 7.409-8.059 12.889-8.515 7.222-.601 14.423-2.147 21.435-4.606-1.558-2.599-2.595-5.529-2.595-8.712z" fill="#f4aa73"/><path d="m160.619 338.238-19.178-5.754c-12.381 12.244-29.392 19.816-48.181 19.816s-35.799-7.572-48.181-19.816l-19.178 5.754c-10.87 3.262-18.315 13.269-18.315 24.619l25.702 49.432h145.647v-49.432-.001c0-11.35-7.444-21.356-18.316-24.618z" fill="#8ceea1"/><path d="m45.501 359.192 30.543-9.161c-11.864-3.081-22.508-9.185-30.964-17.547l-19.178 5.754c-10.871 3.262-18.316 13.269-18.316 24.619v49.432h25.702v-36.685c0-7.567 4.964-14.238 12.213-16.412z" fill="#4ce1a1"/><path d="m486.184 338.239-29.445-8.834c-7.248-2.174-12.211-8.845-12.211-16.413v-29.231h-27.751l-21.926 89.828h103.069c3.634 0 6.579-7.099 6.579-10.732.001-11.351-7.444-21.357-18.315-24.618z" fill="#c6805d"/><path d="m444.528 312.993v-29.231h-51.405v29.231c0 7.567-4.963 14.238-12.211 16.412l-22.025 33.437 29.401-8.818c10.477-3.14 19.137-10.116 24.511-19.199 2.801-4.733 7.409-8.059 12.889-8.515 7.222-.601 14.423-2.147 21.435-4.606-1.558-2.598-2.595-5.528-2.595-8.711z" fill="#af6e4d"/><path d="m486.184 338.238-19.178-5.753c-12.381 12.244-29.392 19.816-48.181 19.816s-35.8-7.572-48.181-19.816l-30.179 35.076 18.387 44.728h145.648v-49.432c0-11.351-7.445-21.357-18.316-24.619z" fill="#ffe077"/><path d="m371.065 359.192 30.543-9.161c-11.864-3.081-22.508-9.185-30.964-17.547l-19.178 5.754c-10.871 3.262-18.316 13.268-18.316 24.618v49.432h25.702v-36.685c.001-7.566 4.965-14.237 12.213-16.411z" fill="#ffd05b"/><path d="m118.963 129.562h-51.405c-28.39 0-51.405 23.015-51.405 51.405v42.837h154.215v-42.837c0-28.39-23.015-51.405-51.405-51.405z" fill="#d48c64"/><path d="m67.558 129.562c-28.39 0-51.405 23.015-51.405 51.405v42.837h51.405z" fill="#c6805d"/><path d="m178.701 220.927c-1.37-8.425-9.282-14.257-17.817-14.257h-7.65c-6.624 0-12.371-3.759-15.222-9.261-2.558-4.934-6.721-8.836-12.171-9.926l-65.169-13.034c-5.301-1.06-10.248 2.995-10.248 8.401v6.684c0 9.463-7.672 17.135-17.135 17.135h-7.65c-8.536 0-16.447 5.833-17.817 14.257-1.746 10.735 6.494 20.013 16.9 20.013h8.567c0 33.122 26.851 59.972 59.972 59.972s59.972-26.851 59.972-59.972h8.567c10.407.001 18.647-9.277 16.901-20.012z" fill="#ffd18d"/><path d="m24.721 240.94h8.567c0 33.122 26.851 59.972 59.972 59.972 5.749 0 11.29-.857 16.553-2.367.109-.065.204-.181.32-.217-24.634-7.458-42.576-30.32-42.576-57.389v-65.113l-6.887-1.377c-5.301-1.06-10.248 2.995-10.248 8.401v6.684c0 9.463-7.672 17.135-17.135 17.135h-7.65c-8.536 0-16.447 5.833-17.817 14.257-1.746 10.736 6.494 20.014 16.901 20.014z" fill="#fbbd80"/><path d="m418.825 120.995c-47.317 0-69.454 38.358-69.454 85.675v17.135l60.887 51.405h77.107c9.463 0 17.135-7.672 17.135-17.135v-51.405c0-47.318-38.358-85.675-85.675-85.675z" fill="#615260"/><path d="m393.123 124.929c-34.757 10.919-59.972 43.38-59.972 81.74v17.135l59.972 39.982z" fill="#4e3d4d"/><path d="m375.988 184.286v5.248c-.119.905-8.807 48.687-8.807 48.687 0 33.735 19.526 63.682 53.49 62.662 32.823-.985 58.127-29.621 58.127-62.459v-.015c0-18.955-12.129-35.783-30.111-41.777l-61.422-20.474c-5.548-1.849-11.277 2.281-11.277 8.128z" fill="#d48c64"/><path d="m393.123 240.94v-62.829l-5.858-1.953c-5.548-1.849-11.277 2.28-11.277 8.128v5.249c0 9.463-7.672 17.135-17.135 17.135h-7.65c-8.536 0-16.447 5.832-17.817 14.257-1.747 10.736 6.494 20.013 16.9 20.013h8.567c0 33.734 27.854 60.964 61.818 59.945 5.234-.157 10.248-1.088 15.028-2.556-24.635-7.459-42.576-30.321-42.576-57.389z" fill="#c6805d"/><path d="m256.043 120.979c-47.317 0-85.675 38.358-85.675 85.675v17.135h171.35v-17.135c0-47.317-38.358-85.675-85.675-85.675z" fill="#845252"/><path d="m230.34 124.914c-34.757 10.919-59.972 43.38-59.972 81.74v17.135h59.972z" fill="#7a4646"/><path d="m323.402 338.239-29.445-8.834c-7.248-2.174-12.211-8.845-12.211-16.412v-29.231h-51.406v29.231c0 7.567-4.963 14.238-12.211 16.412l-29.445 8.834c-10.872 3.262-18.317 13.268-18.317 24.618 0 3.634 2.946 10.732 6.579 10.732h158.191c3.634 0 6.579-7.099 6.579-10.732v-.001c.002-11.35-7.443-21.356-18.314-24.617z" fill="#e29a6c"/><path d="m281.745 312.993v-29.231h-51.405v29.231c0 7.567-4.963 14.238-12.211 16.412l-29.444 8.834 7.419 24.604 29.401-8.818c10.477-3.14 19.137-10.116 24.511-19.199 2.801-4.733 7.409-8.059 12.889-8.515 7.222-.601 14.423-2.147 21.435-4.606-1.557-2.599-2.595-5.529-2.595-8.712z" fill="#d48c64"/><path d="m323.401 338.238-19.178-5.754c-12.381 12.244-29.392 19.816-48.181 19.816-18.788 0-35.799-7.572-48.181-19.816l-19.178 5.754c-10.871 3.262-18.316 13.268-18.316 24.618l25.702 49.432h145.647v-49.432-.001c.002-11.349-7.443-21.355-18.315-24.617z" fill="#ff7e92"/><path d="m341.483 220.911c-1.37-8.425-9.282-14.257-17.817-14.257h-7.65c-6.624 0-12.371-3.759-15.222-9.261-2.558-4.934-6.721-8.836-12.171-9.926l-65.169-13.034c-5.301-1.06-10.248 2.995-10.248 8.401v6.684c0 9.463-7.672 17.135-17.135 17.135h-7.65c-8.536 0-16.447 5.833-17.817 14.257-1.746 10.735 6.494 20.013 16.9 20.013h8.567c0 33.122 26.851 59.972 59.972 59.972s59.972-26.851 59.972-59.972h8.567c10.407.001 18.647-9.276 16.901-20.012z" fill="#f4aa73"/><path d="m187.503 240.924h8.567c0 33.122 26.851 59.972 59.972 59.972 5.749 0 11.29-.857 16.553-2.367.109-.065.204-.181.32-.217-24.634-7.458-42.576-30.32-42.576-57.389v-65.113l-6.887-1.377c-5.301-1.06-10.248 2.995-10.248 8.401v6.684c0 9.463-7.672 17.135-17.135 17.135h-7.65c-8.536 0-16.447 5.833-17.817 14.257-1.745 10.736 6.494 20.014 16.901 20.014z" fill="#e29a6c"/><path d="m256.016 120.979-47.859 20.567c-5.654 2.43-11.95-1.717-11.95-7.871v-25.391c0-6.154 6.296-10.301 11.95-7.871z" fill="#ff7e92"/><path d="m256.206 120.979 47.859-20.567c5.654-2.43 11.95 1.717 11.95 7.871v25.391c0 6.154-6.296 10.301-11.95 7.871z" fill="#ff7e92"/><path d="m208.283 359.192 30.543-9.161c-11.864-3.081-22.508-9.185-30.964-17.547l-19.178 5.754c-10.871 3.262-18.316 13.268-18.316 24.618v49.432h25.702v-36.685c0-7.566 4.964-14.237 12.213-16.411z" fill="#ff5f7a"/></g><g><path d="m237.743 223.801c0-4.142-3.358-7.5-7.5-7.5h-.086c-4.142 0-7.457 3.358-7.457 7.5s3.401 7.5 7.543 7.5 7.5-3.358 7.5-7.5z"/><path d="m281.656 216.301h-.085c-4.142 0-7.458 3.358-7.458 7.5s3.401 7.5 7.543 7.5 7.5-3.358 7.5-7.5-3.358-7.5-7.5-7.5z"/><path d="m267.981 254.402c-3.396 3.059-7.699 4.744-12.118 4.744s-8.722-1.685-12.119-4.744c-3.078-2.773-7.82-2.525-10.592.553s-2.524 7.82.553 10.592c6.156 5.545 14.025 8.6 22.158 8.6s16.002-3.054 22.158-8.6c3.077-2.772 3.325-7.515.552-10.592-2.772-3.077-7.513-3.325-10.592-.553z"/><path d="m118.896 231.301c4.142 0 7.457-3.358 7.457-7.5s-3.4-7.5-7.542-7.5-7.5 3.358-7.5 7.5 3.358 7.5 7.5 7.5z"/><path d="m74.94 223.801c0-4.142-3.401-7.5-7.543-7.5s-7.5 3.358-7.5 7.5 3.358 7.5 7.5 7.5h.086c4.142 0 7.457-3.358 7.457-7.5z"/><path d="m71.032 265.547c6.156 5.545 14.025 8.6 22.158 8.6 8.132 0 16.001-3.054 22.158-8.6 3.078-2.772 3.325-7.514.553-10.592s-7.515-3.325-10.592-.553c-3.396 3.059-7.7 4.744-12.119 4.744s-8.722-1.685-12.118-4.744c-3.078-2.772-7.82-2.525-10.592.553-2.773 3.077-2.525 7.82.552 10.592z"/><path d="m158.176 137.048c-10.81-9.676-24.76-15.005-39.28-15.005h-51.413c-32.485 0-58.914 26.429-58.914 58.914v24.456c-4.284 3.647-7.314 8.632-8.237 14.306-1.174 7.22.842 14.523 5.532 20.038 4.693 5.518 11.536 8.683 18.774 8.683h1.483c2.44 21.971 15.476 40.786 33.862 51.224v13.357c0 4.289-2.76 7.999-6.869 9.231l-29.45 8.835c-14.154 4.247-23.664 17.028-23.664 31.806v49.405c0 4.142 3.358 7.5 7.5 7.5s7.5-3.358 7.5-7.5v-49.405c0-8.102 5.214-15.111 12.975-17.439l15.048-4.515c13.885 12.212 31.547 18.896 50.166 18.896 18.632 0 36.334-6.708 50.23-18.953.397.064.794.103 1.187.103 3.226 0 6.206-2.098 7.181-5.347 1.19-3.967-1.061-8.148-5.028-9.338l-13.494-4.048c-4.108-1.232-6.869-4.942-6.869-9.231v-13.438c14.84-8.437 26.419-22.361 31.48-39.364 1.182-3.97-1.079-8.146-5.049-9.328-3.97-1.183-8.146 1.079-9.328 5.048-6.569 22.07-27.257 37.483-50.31 37.483-28.939 0-52.482-23.543-52.482-52.482 0-4.143-3.358-7.5-7.5-7.5h-8.569c-2.832 0-5.51-1.239-7.347-3.4-1.862-2.189-2.627-5-2.153-7.911.727-4.466 5.303-7.965 10.418-7.965h7.652c13.585 0 24.638-11.052 24.638-24.638v-7.989l76.719 15.344c4.066.814 8.013-1.822 8.825-5.884s-1.822-8.013-5.884-8.825l-85.69-17.138c-2.202-.441-4.488.13-6.226 1.555-1.738 1.424-2.745 3.553-2.745 5.8v17.138c0 5.314-4.323 9.638-9.638 9.638h-7.652c-.668 0-1.329.038-1.986.088v-18.294c0-24.214 19.7-43.914 43.914-43.914h51.414c10.823 0 21.22 3.971 29.276 11.182 3.085 2.762 7.827 2.5 10.59-.586 2.762-3.089 2.5-7.83-.587-10.593zm-46.78 168.824v7.149c0 9.816 5.665 18.431 14.386 22.391-9.675 6.127-20.904 9.424-32.593 9.424-11.698 0-22.919-3.298-32.591-9.425 8.72-3.961 14.384-12.575 14.384-22.391v-7.104c5.795 1.626 11.899 2.505 18.207 2.505 6.253.001 12.367-.891 18.207-2.549z"/><path d="m323.347 133.672v-25.396c0-5.421-2.703-10.438-7.23-13.42-4.527-2.981-10.204-3.484-15.184-1.344l-45.001 19.339-45.001-19.339c-4.981-2.141-10.656-1.638-15.184 1.344-4.527 2.982-7.23 7.999-7.23 13.42v25.396c0 2.491.577 4.894 1.633 7.056-17.456 17.43-27.34 41.073-27.34 65.936v17.138h.005c.009 5.829 2.054 11.481 5.859 15.956 4.693 5.518 11.536 8.683 18.774 8.683h1.483c2.434 21.916 15.412 40.69 33.726 51.144v13.438c0 4.289-2.76 7.999-6.869 9.231l-29.449 8.835c-14.154 4.247-23.665 17.028-23.665 31.807v49.405c0 4.142 3.358 7.5 7.5 7.5s7.5-3.358 7.5-7.5v-49.405c0-8.103 5.214-15.111 12.975-17.439l15.047-4.514c13.886 12.209 31.564 18.896 50.168 18.896 18.62 0 36.281-6.685 50.167-18.896l15.048 4.514c7.761 2.328 12.975 9.337 12.975 17.439v49.405c0 4.142 3.358 7.5 7.5 7.5s7.5-3.358 7.5-7.5v-49.405c0-14.778-9.51-27.56-23.665-31.806l-29.449-8.835c-4.108-1.232-6.869-4.942-6.869-9.231v-13.277c18.459-10.422 31.552-29.279 33.998-51.304h1.483c7.238 0 14.081-3.165 18.774-8.683 3.805-4.474 5.85-10.126 5.859-15.956h.005v-17.138c0-24.812-9.939-48.592-27.431-66.026 1.028-2.142 1.588-4.512 1.588-6.968zm-16.491-26.378c.351-.151.69-.121 1.01.089s.481.511.481.893v25.396c0 .382-.162.682-.481.893-.319.21-.658.24-1.01.089l-31.833-13.68zm-103.339.982c0-.382.162-.683.481-.893.186-.123.379-.184.577-.184.142 0 .286.032.433.095l31.833 13.68-31.833 13.68c-.352.151-.691.121-1.01-.089s-.481-.511-.481-.893zm-.973 41.332c.675.087 1.354.138 2.034.138 2.149 0 4.31-.434 6.352-1.312l45.002-19.339 45.001 19.339c2.043.878 4.203 1.312 6.352 1.312.712 0 1.423-.053 2.128-.148 14.449 13.537 23.214 32.049 24.569 51.708-3.19-1.367-6.695-2.143-10.348-2.143h-7.651c-5.314 0-9.638-4.323-9.638-9.638 0-3.575-2.523-6.653-6.029-7.354l-85.689-17.138c-2.203-.442-4.488.13-6.226 1.555-1.738 1.424-2.745 3.553-2.745 5.8v17.138c0 5.314-4.324 9.638-9.638 9.638h-7.651c-3.66 0-7.171.779-10.366 2.15 1.345-19.707 10.085-38.155 24.543-51.706zm85.911 185.803c-9.672 6.127-20.893 9.425-32.591 9.425-11.689 0-22.917-3.297-32.593-9.424 8.72-3.96 14.385-12.575 14.385-22.391v-7.14c5.835 1.65 11.987 2.542 18.343 2.542 6.258 0 12.316-.868 18.071-2.47v7.068c.001 9.816 5.665 18.429 14.385 22.39zm43.444-105.372c-1.837 2.161-4.516 3.4-7.347 3.4h-8.569c-4.142 0-7.5 3.357-7.5 7.5 0 28.939-23.544 52.482-52.483 52.482s-52.483-23.543-52.483-52.482c0-4.143-3.358-7.5-7.5-7.5h-8.569c-2.832 0-5.51-1.239-7.347-3.4-1.862-2.189-2.627-5-2.153-7.912.726-4.466 5.302-7.964 10.418-7.964h7.651c13.585 0 24.638-11.052 24.638-24.638v-7.989l71.509 14.302c2.795 10.536 12.415 18.325 23.819 18.325h7.651c5.116 0 9.692 3.498 10.418 7.964.474 2.913-.291 5.723-2.153 7.912z"/><path d="m470.839 282.715h16.524c13.585 0 24.638-11.052 24.638-24.638v-51.414c0-51.385-41.805-93.189-93.19-93.189-24.544 0-47.713 9.462-65.237 26.644-2.958 2.9-3.005 7.648-.105 10.606s7.648 3.004 10.606.105c14.704-14.415 34.143-22.354 54.737-22.354 43.114 0 78.189 35.076 78.189 78.189v51.414c0 5.314-4.323 9.638-9.638 9.638h-7.378c4.04-8.953 6.308-18.892 6.308-29.306 0-22.222-14.164-41.873-35.245-48.899l-61.433-20.478c-4.887-1.629-10.299-.803-14.477 2.208-4.179 3.012-6.673 7.885-6.673 13.036v5.249c0 4.142 3.358 7.5 7.5 7.5s7.5-3.358 7.5-7.5v-5.249c0-.363.149-.655.444-.867.294-.212.619-.262.963-.146l61.433 20.478c14.946 4.981 24.988 18.914 24.988 34.684 0 29.471-22.817 54.132-50.862 54.974-23.793.711-45.153-14.689-51.93-37.459-1.182-3.97-5.357-6.229-9.328-5.048-3.97 1.182-6.23 5.357-5.049 9.328 5.106 17.156 16.648 31.053 31.48 39.442v13.36c0 4.289-2.76 7.999-6.869 9.231l-13.494 4.048c-3.967 1.19-6.219 5.372-5.028 9.338.975 3.249 3.955 5.347 7.181 5.347.393 0 .79-.039 1.187-.103 13.896 12.245 31.598 18.953 50.23 18.953 18.619 0 36.281-6.685 50.166-18.896l15.048 4.515c7.761 2.328 12.975 9.337 12.975 17.439v49.405c0 4.142 3.358 7.5 7.5 7.5s7.5-3.358 7.5-7.5v-49.405c0-14.778-9.51-27.56-23.665-31.806l-29.45-8.835c-4.108-1.232-6.869-4.942-6.869-9.231v-13.775c7.198-4.286 13.572-9.916 18.823-16.533zm-19.438 52.696c-9.672 6.127-20.893 9.425-32.591 9.425-11.689 0-22.917-3.297-32.593-9.424 8.72-3.96 14.385-12.575 14.385-22.391v-7.119c5.841 1.641 11.963 2.521 18.237 2.521.678 0 1.358-.011 2.04-.031 5.567-.167 10.973-1.061 16.136-2.583v7.212c.002 9.816 5.667 18.429 14.386 22.39z"/><path d="m393.189 216.301h-.085c-4.142 0-7.457 3.358-7.457 7.5s3.4 7.5 7.542 7.5 7.5-3.358 7.5-7.5-3.358-7.5-7.5-7.5z"/><path d="m452.103 223.801c0-4.142-3.358-7.5-7.5-7.5h-.086c-4.142 0-7.457 3.358-7.457 7.5s3.401 7.5 7.543 7.5 7.5-3.358 7.5-7.5z"/><path d="m430.928 254.402c-3.396 3.059-7.699 4.744-12.118 4.744s-8.722-1.685-12.119-4.744c-3.078-2.773-7.82-2.525-10.592.553s-2.524 7.82.553 10.592c6.156 5.545 14.025 8.6 22.158 8.6s16.002-3.054 22.158-8.6c3.077-2.772 3.325-7.515.552-10.592-2.771-3.077-7.514-3.325-10.592-.553z"/></g></g></svg>