<svg id="Layer_1" enable-background="new 0 0 256 256" height="512" viewBox="0 0 256 256" width="512" xmlns="http://www.w3.org/2000/svg"><circle cx="51.162" cy="35.361" fill="#ff4397" r="31.361"/><path d="m51.162 4c-1.245 0-2.472.081-3.679.222 15.585 1.822 27.682 15.064 27.682 31.139 0 16.074-12.096 29.316-27.682 31.139 1.208.141 2.434.222 3.679.222 17.32 0 31.361-14.041 31.361-31.361-.001-17.32-14.041-31.361-31.361-31.361z" fill="#e12579"/><path d="m51.162 66.722c1.245 0 2.471-.081 3.679-.222-15.585-1.822-27.682-15.064-27.682-31.138 0-16.075 12.097-29.316 27.682-31.139-1.208-.142-2.434-.223-3.679-.223-17.32 0-31.361 14.041-31.361 31.361s14.041 31.361 31.361 31.361z" fill="#ff61b5"/><path d="m51.162 68.721c-18.395 0-33.361-14.965-33.361-33.36s14.966-33.361 33.361-33.361 33.361 14.966 33.361 33.361c-.001 18.395-14.966 33.36-33.361 33.36zm0-62.721c-16.19 0-29.361 13.171-29.361 29.361 0 16.189 13.171 29.36 29.361 29.36 16.189 0 29.361-13.171 29.361-29.36-.001-16.19-13.172-29.361-29.361-29.361z" fill="#690589"/><circle cx="204.838" cy="35.361" fill="#7bac51" r="31.361"/><path d="m204.838 4c-1.245 0-2.471.081-3.679.222 15.585 1.822 27.682 15.064 27.682 31.139 0 16.074-12.096 29.316-27.682 31.139 1.208.141 2.434.222 3.679.222 17.32 0 31.361-14.041 31.361-31.361 0-17.32-14.041-31.361-31.361-31.361z" fill="#5d8e33"/><path d="m204.838 66.722c1.245 0 2.471-.081 3.679-.222-15.585-1.822-27.682-15.064-27.682-31.138 0-16.075 12.097-29.316 27.682-31.139-1.207-.142-2.433-.223-3.679-.223-17.32 0-31.361 14.041-31.361 31.361s14.041 31.361 31.361 31.361z" fill="#99ca6f"/><path d="m204.838 68.721c-18.395 0-33.361-14.965-33.361-33.36s14.966-33.361 33.361-33.361 33.361 14.966 33.361 33.361-14.966 33.36-33.361 33.36zm0-62.721c-16.189 0-29.361 13.171-29.361 29.361 0 16.189 13.171 29.36 29.361 29.36 16.189 0 29.361-13.171 29.361-29.36 0-16.19-13.171-29.361-29.361-29.361z" fill="#690589"/><circle cx="127.958" cy="35.361" fill="#fcc24c" r="31.361"/><path d="m127.958 4c-1.245 0-2.472.081-3.679.222 15.585 1.822 27.682 15.064 27.682 31.139 0 16.074-12.096 29.316-27.682 31.139 1.207.141 2.434.222 3.679.222 17.32 0 31.361-14.041 31.361-31.361-.001-17.32-14.041-31.361-31.361-31.361z" fill="#dea42e"/><path d="m127.958 66.722c1.245 0 2.471-.081 3.679-.222-15.585-1.822-27.682-15.064-27.682-31.138 0-16.075 12.097-29.316 27.682-31.139-1.208-.142-2.434-.223-3.679-.223-17.32 0-31.361 14.041-31.361 31.361s14.041 31.361 31.361 31.361z" fill="#fce06a"/><g fill="#690589"><path d="m127.958 68.721c-18.395 0-33.361-14.965-33.361-33.36s14.966-33.361 33.361-33.361 33.36 14.966 33.36 33.361-14.965 33.36-33.36 33.36zm0-62.721c-16.189 0-29.361 13.171-29.361 29.361 0 16.189 13.171 29.36 29.361 29.36 16.189 0 29.36-13.171 29.36-29.36 0-16.19-13.171-29.361-29.36-29.361z"/><path d="m51.162 40.163c-7.165 0-12.993-5.829-12.993-12.993s5.829-12.993 12.993-12.993c7.165 0 12.993 5.829 12.993 12.993s-5.829 12.993-12.993 12.993zm0-21.987c-4.959 0-8.993 4.034-8.993 8.993s4.034 8.993 8.993 8.993 8.993-4.034 8.993-8.993-4.034-8.993-8.993-8.993z"/><path d="m51.162 56.545c-1.104 0-2-.896-2-2v-16.382c0-1.104.896-2 2-2s2 .896 2 2v16.383c0 1.104-.896 1.999-2 1.999z"/><path d="m58.091 48.354h-13.858c-1.104 0-2-.896-2-2s.896-2 2-2h13.858c1.104 0 2 .896 2 2s-.896 2-2 2z"/><path d="m127.958 56.545c-7.165 0-12.994-5.829-12.994-12.993 0-7.165 5.829-12.993 12.994-12.993s12.993 5.829 12.993 12.993c0 7.165-5.828 12.993-12.993 12.993zm0-21.986c-4.959 0-8.994 4.034-8.994 8.993s4.035 8.993 8.994 8.993 8.993-4.034 8.993-8.993-4.034-8.993-8.993-8.993z"/><path d="m127.958 34.559c-1.105 0-2-.896-2-2v-16.383c0-1.104.895-2 2-2 1.104 0 2 .896 2 2v16.383c0 1.105-.896 2-2 2z"/><path d="m122.029 24.607c-.485 0-.971-.175-1.355-.529-.812-.749-.864-2.014-.115-2.826l5.929-6.431c.379-.411.912-.644 1.471-.644.559 0 1.092.234 1.471.644l5.928 6.431c.749.812.697 2.077-.115 2.826-.812.748-2.077.697-2.826-.115l-4.457-4.836-4.458 4.836c-.397.428-.934.644-1.473.644z"/><path d="m199.068 54.146c-3.47 0-6.733-1.352-9.187-3.806s-3.806-5.717-3.806-9.188c0-3.47 1.352-6.733 3.806-9.188 5.066-5.065 13.31-5.066 18.375 0 2.454 2.454 3.806 5.717 3.806 9.188s-1.352 6.734-3.806 9.188c-2.454 2.455-5.717 3.806-9.188 3.806zm0-21.982c-2.303 0-4.605.876-6.359 2.629-1.699 1.699-2.634 3.958-2.634 6.359 0 2.402.936 4.661 2.634 6.359 1.699 1.699 3.957 2.634 6.359 2.634s4.661-.936 6.359-2.634c1.699-1.699 2.634-3.957 2.634-6.359s-.936-4.661-2.634-6.359c-1.753-1.752-4.055-2.629-6.359-2.629z"/><path d="m206.842 35.379c-.512 0-1.023-.195-1.414-.586-.781-.781-.781-2.047 0-2.828l11.585-11.584c.78-.781 2.047-.781 2.828 0s.781 2.047 0 2.828l-11.584 11.584c-.391.391-.904.586-1.415.586z"/><path d="m218.072 32.535c-.027 0-.055 0-.083-.001-1.104-.045-1.962-.976-1.917-2.08l.267-6.572-6.572.268c-1.095.044-2.035-.814-2.08-1.918-.045-1.103.813-2.035 1.917-2.08l8.74-.355c.556-.021 1.101.189 1.495.584.395.395.607.937.585 1.495l-.355 8.74c-.044 1.076-.93 1.919-1.997 1.919z"/><path d="m130.825 29.3h-5.734c-1.104 0-2-.896-2-2s.896-2 2-2h5.734c1.104 0 2 .896 2 2s-.896 2-2 2z"/></g><path d="m87.467 99.599c-4.449 0-8.056 3.607-8.056 8.056v-16.282c0-4.449-3.607-8.056-8.056-8.056s-8.056 3.607-8.056 8.056v-3.754c0-4.449-3.607-8.056-8.056-8.056s-8.056 3.607-8.056 8.056v12.421c0-4.449-3.607-8.056-8.056-8.056s-8.056 3.607-8.056 8.056v35.879 10.553c0-4.458-3.614-8.073-8.073-8.073-4.458 0-8.073 3.615-8.073 8.073v28.56c0 8.917 7.229 16.146 16.145 16.146v1.077c0 5.949 4.822 10.771 10.771 10.771v48.974h44.465v-49.073c5.27-.681 9.213-5.194 9.213-10.672v-84.023-.576c0-4.45-3.607-8.057-8.056-8.057z" fill="#ff9f70"/><path d="m86.31 202.926c5.27-.681 9.213-5.194 9.213-10.672v-84.023-.576c0-4.449-3.607-8.056-8.056-8.056-1.143 0-2.229.241-3.214.671 2.849 1.242 4.842 4.079 4.842 7.385v.575 84.023c0 5.117-3.44 9.391-8.188 10.488-.598.138-1.025.662-1.025 1.275v47.984h6.428z" fill="#e18152"/><path d="m48.373 252v-47.972c0-.57-.43-1.049-.997-1.11l-1.271-.137c-4.859-1.042-8.504-5.357-8.504-10.527 0-.584-.45-1.073-1.033-1.109-8.436-.533-15.113-7.543-15.113-16.113v-28.56c0-3.296 1.978-6.126 4.809-7.38-.001 0-.001-.001-.002-.001-.316-.14-.642-.26-.978-.359-.023-.007-.047-.011-.07-.018-.284-.082-.576-.144-.872-.195-.084-.014-.169-.027-.254-.039-.268-.037-.54-.059-.815-.068-.068-.002-.135-.01-.204-.01-.333-.003-.67.017-1.012.056-4.013.468-7.129 3.874-7.129 8.013v28.56c0 8.917 7.229 16.146 16.145 16.146v1.077c0 5.949 4.822 10.771 10.771 10.771v48.975z" fill="#ffbd8e"/><path d="m31.074 171.276c-1.104 0-2-.895-2-2v-22.804c0-1.104.896-2 2-2s2 .896 2 2v22.804c0 1.104-.895 2-2 2z" fill="#690589"/><path d="m63.299 144.925c-1.104 0-2-.895-2-2v-55.306c0-3.339-2.717-6.056-6.056-6.056s-6.056 2.717-6.056 6.056v21.735c0 1.104-.896 2-2 2-1.105 0-2-.896-2-2v-21.735c0-5.545 4.511-10.056 10.056-10.056s10.056 4.511 10.056 10.056v55.306c0 1.105-.896 2-2 2z" fill="#690589"/><path d="m63.299 144.925c-1.104 0-2-.895-2-2v-51.552c0-5.545 4.511-10.056 10.056-10.056s10.056 4.511 10.056 10.056v17.981c0 1.104-.896 2-2 2s-2-.896-2-2v-17.981c0-3.339-2.717-6.056-6.056-6.056s-6.056 2.717-6.056 6.056v51.552c0 1.105-.896 2-2 2z" fill="#690589"/><path d="m86.31 254h-44.464c-1.104 0-2-.895-2-2v-47.131c-5.832-.921-10.366-5.805-10.746-11.798-9.081-.987-16.171-8.701-16.171-18.04v-28.56c0-5.554 4.519-10.073 10.073-10.073 2.279 0 4.383.76 6.072 2.041v-38.4c0-5.545 4.511-10.056 10.056-10.056s10.057 4.511 10.057 10.056v42.885c0 1.104-.896 2-2 2-1.105 0-2-.896-2-2v-42.884c0-3.339-2.717-6.056-6.057-6.056-3.339 0-6.056 2.717-6.056 6.056v46.432c0 1.105-.896 2-2 2s-2-.895-2-2c0-3.349-2.724-6.073-6.072-6.073-3.349 0-6.073 2.724-6.073 6.073v28.56c0 7.8 6.345 14.146 14.145 14.146 1.104 0 2 .896 2 2v1.077c0 4.836 3.935 8.771 8.771 8.771 1.105 0 2 .895 2 2v46.974h40.465v-47.074c0-1.005.747-1.855 1.744-1.983 4.328-.559 7.47-4.213 7.47-8.689v-84.023-.577c0-3.338-2.717-6.055-6.056-6.055s-6.056 2.717-6.056 6.056v35.27c0 1.104-.896 2-2 2s-2-.896-2-2v-35.27c0-5.545 4.511-10.056 10.056-10.056 5.544 0 10.056 4.511 10.056 10.056v.577 84.022c0 5.796-3.854 10.802-9.213 12.301v47.445c-.001 1.105-.896 2-2.001 2z" fill="#690589"/><path d="m21.357 177.904c-1.104 0-2-.895-2-2v-12c0-1.104.896-2 2-2s2 .896 2 2v12c0 1.104-.896 2-2 2z" fill="#690589"/><path d="m160.241 99.599c-4.449 0-8.056 3.607-8.056 8.056v-16.282c0-4.449-3.607-8.056-8.056-8.056s-8.056 3.607-8.056 8.056v-3.754c0-4.449-3.607-8.056-8.056-8.056s-8.056 3.607-8.056 8.056v12.421c0-4.449-3.607-8.056-8.056-8.056s-8.056 3.607-8.056 8.056v35.879 10.553c0-4.458-3.614-8.073-8.073-8.073-4.458 0-8.073 3.615-8.073 8.073v28.56c0 8.917 7.229 16.146 16.146 16.146v1.077c0 5.949 4.822 10.771 10.771 10.771v48.974h44.465v-49.073c5.27-.681 9.213-5.194 9.213-10.672v-84.023-.576c-.001-4.45-3.608-8.057-8.057-8.057z" fill="#ff9f70"/><path d="m159.084 202.926c5.27-.681 9.213-5.194 9.213-10.672v-84.023-.576c0-4.449-3.607-8.056-8.056-8.056-1.143 0-2.229.241-3.214.671 2.849 1.242 4.842 4.079 4.842 7.385v.575 84.023c0 5.117-3.44 9.391-8.188 10.488-.598.138-1.025.662-1.025 1.275v47.984h6.428z" fill="#e18152"/><path d="m121.146 252v-47.972c0-.57-.43-1.049-.997-1.11l-1.271-.137c-4.859-1.042-8.504-5.357-8.504-10.527 0-.584-.45-1.073-1.033-1.109-8.436-.533-15.113-7.543-15.113-16.113v-28.56c0-3.296 1.978-6.126 4.809-7.38-.001 0-.001-.001-.002-.001-.316-.14-.643-.26-.978-.359-.023-.007-.047-.011-.07-.018-.284-.082-.576-.144-.872-.195-.084-.014-.169-.027-.254-.039-.268-.037-.54-.059-.815-.068-.068-.002-.135-.01-.204-.01-.333-.003-.67.017-1.012.056-4.013.468-7.129 3.874-7.129 8.013v28.56c0 8.917 7.229 16.146 16.146 16.146v1.077c0 5.949 4.822 10.771 10.771 10.771v48.975z" fill="#ffbd8e"/><path d="m103.848 171.276c-1.104 0-2-.895-2-2v-22.804c0-1.104.896-2 2-2s2 .896 2 2v22.804c0 1.104-.895 2-2 2z" fill="#690589"/><path d="m136.073 144.925c-1.104 0-2-.895-2-2v-55.306c0-3.339-2.717-6.056-6.056-6.056s-6.056 2.717-6.056 6.056v21.735c0 1.104-.896 2-2 2s-2-.896-2-2v-21.735c0-5.545 4.511-10.056 10.056-10.056s10.056 4.511 10.056 10.056v55.306c0 1.105-.896 2-2 2z" fill="#690589"/><path d="m136.073 144.925c-1.104 0-2-.895-2-2v-51.552c0-5.545 4.511-10.056 10.056-10.056s10.056 4.511 10.056 10.056v17.981c0 1.104-.895 2-2 2-1.104 0-2-.896-2-2v-17.981c0-3.339-2.717-6.056-6.056-6.056s-6.056 2.717-6.056 6.056v51.552c0 1.105-.896 2-2 2z" fill="#690589"/><path d="m159.084 254h-44.464c-1.104 0-2-.895-2-2v-47.131c-5.832-.921-10.366-5.805-10.746-11.798-9.081-.987-16.171-8.701-16.171-18.04v-28.56c0-5.554 4.519-10.073 10.073-10.073 2.279 0 4.383.76 6.072 2.041v-38.4c0-5.545 4.511-10.056 10.056-10.056s10.056 4.511 10.056 10.056v42.885c0 1.104-.896 2-2 2s-2-.896-2-2v-42.884c0-3.339-2.717-6.056-6.056-6.056s-6.056 2.717-6.056 6.056v46.432c0 1.105-.896 2-2 2s-2-.895-2-2c0-3.349-2.724-6.073-6.072-6.073-3.349 0-6.073 2.724-6.073 6.073v28.56c0 7.8 6.346 14.146 14.146 14.146 1.104 0 2 .896 2 2v1.077c0 4.836 3.935 8.771 8.771 8.771 1.104 0 2 .895 2 2v46.974h40.464v-47.074c0-1.005.747-1.855 1.744-1.983 4.328-.559 7.47-4.213 7.47-8.689l-.001-84.023.001-.577c-.001-3.338-2.717-6.055-6.056-6.055s-6.056 2.717-6.056 6.056v35.27c0 1.104-.895 2-2 2-1.104 0-2-.896-2-2v-35.27c0-5.545 4.511-10.056 10.056-10.056 5.544 0 10.056 4.511 10.056 10.056l-.001.577.001 84.022c0 5.796-3.855 10.802-9.213 12.301v47.445c-.001 1.105-.897 2-2.001 2z" fill="#690589"/><path d="m233.015 99.599c-4.449 0-8.056 3.607-8.056 8.056v-16.282c0-4.449-3.607-8.056-8.056-8.056s-8.056 3.607-8.056 8.056v-3.754c0-4.449-3.607-8.056-8.056-8.056s-8.056 3.607-8.056 8.056v12.421c0-4.449-3.607-8.056-8.056-8.056s-8.056 3.607-8.056 8.056v35.879 10.553c0-4.458-3.614-8.073-8.073-8.073-4.458 0-8.073 3.615-8.073 8.073v28.56c0 8.917 7.229 16.146 16.146 16.146v1.077c0 5.949 4.822 10.771 10.771 10.771v48.974h44.465v-49.073c5.27-.681 9.213-5.194 9.213-10.672v-84.023-.576c-.001-4.45-3.608-8.057-8.057-8.057z" fill="#ff9f70"/><path d="m231.858 202.926c5.27-.681 9.213-5.194 9.213-10.672v-84.023-.576c0-4.449-3.607-8.056-8.056-8.056-1.143 0-2.229.241-3.214.671 2.849 1.242 4.842 4.079 4.842 7.385v.575 84.023c0 5.117-3.44 9.391-8.188 10.488-.598.138-1.025.662-1.025 1.275v47.984h6.428z" fill="#e18152"/><path d="m193.92 252v-47.972c0-.57-.43-1.049-.997-1.11l-1.271-.137c-4.859-1.042-8.504-5.357-8.504-10.527 0-.584-.45-1.073-1.033-1.109-8.436-.533-15.113-7.543-15.113-16.113v-28.56c0-3.296 1.978-6.126 4.809-7.38-.001 0-.001-.001-.001-.001-.316-.14-.643-.26-.978-.359-.023-.007-.047-.011-.07-.018-.284-.082-.576-.144-.872-.195-.084-.014-.169-.027-.254-.039-.268-.037-.54-.059-.815-.068-.068-.002-.135-.01-.204-.01-.333-.003-.67.017-1.012.056-4.013.468-7.129 3.874-7.129 8.013v28.56c0 8.917 7.229 16.146 16.146 16.146v1.077c0 5.949 4.822 10.771 10.771 10.771v48.975z" fill="#ffbd8e"/><path d="m176.622 171.276c-1.104 0-2-.895-2-2v-22.804c0-1.104.896-2 2-2 1.105 0 2 .896 2 2v22.804c0 1.104-.895 2-2 2z" fill="#690589"/><path d="m208.847 144.925c-1.105 0-2-.895-2-2v-55.306c0-3.339-2.717-6.056-6.056-6.056s-6.056 2.717-6.056 6.056v21.735c0 1.104-.896 2-2 2-1.105 0-2-.896-2-2v-21.735c0-5.545 4.511-10.056 10.056-10.056s10.056 4.511 10.056 10.056v55.306c0 1.105-.896 2-2 2z" fill="#690589"/><path d="m208.847 144.925c-1.105 0-2-.895-2-2v-51.552c0-5.545 4.511-10.056 10.056-10.056s10.056 4.511 10.056 10.056v17.981c0 1.104-.896 2-2 2-1.105 0-2-.896-2-2v-17.981c0-3.339-2.717-6.056-6.056-6.056s-6.056 2.717-6.056 6.056v51.552c0 1.105-.896 2-2 2z" fill="#690589"/><path d="m231.858 254h-44.465c-1.105 0-2-.895-2-2v-47.131c-5.833-.921-10.365-5.805-10.745-11.798-9.081-.987-16.171-8.701-16.171-18.04v-28.56c0-5.554 4.518-10.073 10.073-10.073 2.279 0 4.383.761 6.073 2.042v-38.4c0-5.545 4.511-10.056 10.056-10.056s10.056 4.511 10.056 10.056v42.885c0 1.104-.896 2-2 2-1.105 0-2-.896-2-2v-42.885c0-3.339-2.717-6.056-6.056-6.056s-6.056 2.717-6.056 6.056v46.432c0 1.105-.895 2-2 2-1.104 0-2-.895-2-2 0-3.349-2.724-6.073-6.073-6.073s-6.073 2.724-6.073 6.073v28.56c0 7.8 6.346 14.146 14.145 14.146 1.105 0 2 .896 2 2v1.077c0 4.836 3.935 8.771 8.771 8.771 1.104 0 2 .895 2 2v46.974h40.465v-47.074c0-1.005.747-1.855 1.744-1.983 4.328-.559 7.469-4.213 7.469-8.689v-84.599c0-3.339-2.717-6.056-6.056-6.056s-6.056 2.717-6.056 6.056v35.27c0 1.104-.896 2-2 2-1.105 0-2-.896-2-2v-35.27c0-5.545 4.511-10.056 10.056-10.056s10.056 4.511 10.056 10.056v84.599c0 5.796-3.854 10.802-9.213 12.301v47.445c0 1.105-.896 2-2 2z" fill="#690589"/></svg>