<svg id="Layer_1" enable-background="new 0 0 512 512" height="512" viewBox="0 0 512 512" width="512" xmlns="http://www.w3.org/2000/svg"><g><g><g><g><g><g><g><path d="m415.777 504.5h-362.078v-462.985h362.078z" fill="#b5ceff"/></g></g></g></g><g><g><g><g><g><path d="m458.301 470.485-297.84-52.491c-37.147-6.547-64.238-38.898-64.238-76.713v-333.781h362.078z" fill="#e9f2ff"/></g></g></g></g><path d="m408.301 7.5v454.173l50 8.812v-462.985z" fill="#deebff"/><path d="m162.366 418.065 295.935 52.419-230.082-140.2c0 .001 3.066 87.781-65.853 87.781z" fill="#91a8dd"/></g></g></g><g><path d="m465.801 470.485v-462.985c0-4.142-3.358-7.5-7.5-7.5h-362.078c-4.142 0-7.5 3.358-7.5 7.5v26.515h-35.024c-4.142 0-7.5 3.358-7.5 7.5v65.493c0 9.697 15 9.697 15 0v-57.993h27.524v292.266c0 41.537 29.623 76.906 70.436 84.099l249.118 43.904v27.716h-347.078v-347.445c0-9.697-15-9.697-15 0v354.945c0 4.142 3.358 7.5 7.5 7.5h362.078c4.142 0 7.5-3.358 7.5-7.5v-32.572l33.723 5.943c3.287.579 8.801-1.538 8.801-7.386zm-362.078-129.204v-326.281h347.078v442.132l-149.057-90.827c-8.281-5.045-16.087 7.764-7.806 12.81l126.5 77.082-223.308-39.356c25.461-14.795 35.714-45.721 38.102-73.5l24.647 15.019c8.282 5.044 16.087-7.764 7.806-12.81l-35.563-21.67c-6.445-2.311-10.244-.091-11.398 6.658 1.274 39.397-26.39 85.461-59.009 80.06-33.669-5.575-57.992-35.09-57.992-69.317z"/><path d="m162.794 90.971h228.936c9.931-.344 9.923-14.659 0-15h-228.936c-9.93.344-9.923 14.659 0 15z"/><path d="m162.794 137.214h228.936c9.931-.344 9.923-14.659 0-15h-228.936c-9.93.345-9.923 14.66 0 15z"/><path d="m162.794 183.458h228.936c9.931-.344 9.923-14.659 0-15h-228.936c-9.93.344-9.923 14.659 0 15z"/><path d="m162.794 229.701h228.936c9.931-.344 9.923-14.659 0-15h-228.936c-9.93.344-9.923 14.659 0 15z"/></g></g></svg>