<svg id="Capa_1" enable-background="new 0 0 512 512" height="512" viewBox="0 0 512 512" width="512" xmlns="http://www.w3.org/2000/svg"><g><path d="m417.913 129.576 34.221-34.221c.829 5.39 3.342 10.225 7.027 13.909 4.542 4.54 10.815 7.349 17.745 7.35 13.859 0 25.094-11.235 25.095-25.095l-.001-56.424c0-6.656-2.644-13.038-7.35-17.744s-11.089-7.35-17.745-7.35h-56.426c-13.859.001-25.094 11.235-25.095 25.095 0 12.553 9.225 22.922 21.26 24.772l-34.221 34.221c-57.445-40.55-137.636-35.147-189.009 16.226-57.42 57.42-57.42 150.851.001 208.272s150.851 57.421 208.272.001c51.373-51.375 56.776-131.567 16.226-189.012zm-189.009 153.52c-37.852-37.852-37.853-99.442-.001-137.294s99.442-37.852 137.294 0 37.852 99.442 0 137.294-99.441 37.852-137.293 0z" fill="#66e0f7"/><path d="m287.515 361.473c-.902.978-1.827 1.942-2.776 2.891-37.852 37.852-99.442 37.852-137.294 0s-37.852-99.442 0-137.294 99.442-37.851 137.294.001c22.666 22.666 31.76 53.844 27.281 83.34l50.967-24.246c-2.221-34.468-16.474-68.298-42.759-94.583-57.421-57.421-150.851-57.421-208.272-.001-51.373 51.373-56.776 131.564-16.226 189.009l-29.472 29.472-13.611-13.611c-9.685-9.685-25.318-9.799-35.142-.34-10.135 9.758-9.895 26.28.053 36.228l13.211 13.211-11.776 11.776c-9.685 9.685-9.799 25.318-.34 35.142 9.758 10.135 26.28 9.895 36.229-.053l11.377-11.377 13.61 13.61c9.8 9.8 25.689 9.8 35.489 0 9.8-9.8 9.8-25.689 0-35.489l-13.61-13.61 29.472-29.472c57.445 40.55 137.636 35.147 189.009-16.226 14.093-14.093 24.727-30.356 31.903-47.723z" fill="#ff7d97"/><g><path d="m501.721 10.279c-6.629-6.629-15.442-10.279-24.816-10.279h-56.427c-19.35 0-35.093 15.744-35.094 35.095 0 11.405 5.354 21.587 13.883 28.006l-18.125 18.125c-28.525-17.883-62.397-26.188-96.302-23.465-37.176 2.987-72.156 19.139-98.498 45.48-13.996 13.997-25.042 30.185-32.878 48.166-17.915 7.761-34.378 18.899-48.581 33.102-26.342 26.342-42.494 61.322-45.48 98.498-2.724 33.905 5.579 67.775 23.465 96.302l-16.61 16.611-6.539-6.54c-13.426-13.426-35.474-13.638-49.149-.472-6.725 6.474-10.478 15.267-10.568 24.76-.091 9.605 3.73 18.988 10.485 25.743l6.14 6.14-4.706 4.706c-13.426 13.427-13.638 35.475-.473 49.148 6.475 6.725 15.269 10.478 24.762 10.568.113.001.224.001.336.001 9.487 0 18.73-3.812 25.406-10.487l4.305-4.306 6.539 6.539c6.63 6.63 15.443 10.28 24.817 10.28s18.187-3.65 24.815-10.279c6.629-6.628 10.279-15.441 10.279-24.815 0-9.375-3.65-18.188-10.279-24.815l-6.539-6.54 16.61-16.611c28.527 17.886 62.393 26.188 96.302 23.465 37.175-2.987 72.156-19.139 98.498-45.48 14.001-14.002 25.053-30.213 32.894-48.216 17.646-7.637 34.167-18.654 48.565-33.051 7.292-7.293 13.875-15.305 19.566-23.815 3.07-4.591 1.837-10.801-2.754-13.871-4.591-3.072-10.802-1.837-13.871 2.754-4.966 7.425-10.713 14.42-17.083 20.79-53.521 53.522-140.608 53.521-194.129 0-22.394-22.393-36.287-51.815-39.44-83.278 8.788-7.19 18.788-12.517 29.509-15.779-.492 28.867 10.7 57.132 31.278 77.711 20.878 20.878 48.294 31.316 75.719 31.313 27.418-.002 54.844-10.44 75.717-31.313 20.196-20.196 31.318-47.086 31.318-75.718s-11.122-55.522-31.318-75.718-47.086-31.318-75.718-31.318c-28.585 0-55.433 11.087-75.618 31.22-1.942-.07-3.888-.117-5.841-.117-.002 0 .002 0 0 0-12.091 0-23.969 1.358-35.464 3.987 5.574-9.062 12.207-17.467 19.859-25.119 22.985-22.986 53.513-37.081 85.957-39.688 32.088-2.577 64.125 6.145 90.214 24.56 3.976 2.806 9.396 2.343 12.838-1.099l34.221-34.221c2.665-2.665 3.605-6.601 2.432-10.183-1.172-3.582-4.259-6.2-7.984-6.772-7.286-1.12-12.78-7.521-12.78-14.887 0-8.323 6.772-15.095 15.095-15.095h56.426c4.032 0 7.822 1.57 10.673 4.421 2.85 2.849 4.42 6.64 4.42 10.672v56.424c0 8.324-6.772 15.096-15.094 15.096-4.032 0-7.823-1.571-10.675-4.422-2.264-2.263-3.721-5.153-4.213-8.356-.573-3.725-3.19-6.812-6.772-7.984-3.582-1.173-7.518-.232-10.183 2.432l-34.221 34.22c-3.442 3.442-3.906 8.862-1.099 12.838 15.661 22.186 24.293 48.37 24.963 75.721.133 5.438 4.583 9.755 9.992 9.755.083 0 .167-.001.25-.003 5.521-.135 9.887-4.721 9.752-10.242-.698-28.48-8.941-55.866-23.924-79.72l18.147-18.147c.964 1.272 2.021 2.484 3.167 3.629 6.629 6.627 15.441 10.277 24.814 10.278 19.35 0 35.093-15.743 35.095-35.095v-56.425c.001-9.373-3.649-18.186-10.278-24.815zm-237.283 357.865c-33.822 22.593-80.089 18.983-109.922-10.851-16.418-16.418-25.46-38.286-25.46-61.576 0-17.568 5.151-34.324 14.726-48.545 6.271 29.591 20.967 56.889 42.562 78.484 22.209 22.209 49.455 36.365 78.094 42.488zm-28.462-92.12c-17.669-17.669-26.834-42.318-25.278-67.161 1.789-.108 3.585-.182 5.394-.182 23.29 0 45.158 9.042 61.576 25.46 17.669 17.668 26.834 42.318 25.278 67.162-24.062 1.481-48.624-6.931-66.97-25.279zm61.575-148.611c23.29 0 45.158 9.042 61.576 25.46s25.46 38.286 25.46 61.576c0 17.568-5.151 34.324-14.726 48.545-6.27-29.591-20.962-56.883-42.562-78.484-21.709-21.709-48.69-36.268-78.082-42.52 14.175-9.482 30.854-14.577 48.334-14.577zm-81.46 31.103c36.71 0 71.183 14.254 97.065 40.137 22.398 22.398 36.287 51.812 39.44 83.277-8.924 7.29-18.97 12.53-29.508 15.744.481-28.855-10.709-57.105-31.279-77.675-41.752-41.751-109.686-41.75-151.436 0-20.196 20.196-31.318 47.086-31.318 75.718s11.122 55.523 31.318 75.719c20.876 20.875 48.297 31.313 75.718 31.313 27.38 0 54.76-10.408 75.624-31.221 1.945.072 3.89.118 5.836.118 11.915 0 23.829-1.354 35.497-4.038-5.583 9.085-12.227 17.509-19.892 25.174-22.985 22.986-53.512 37.081-85.957 39.688-32.088 2.578-64.126-6.145-90.214-24.56-3.977-2.808-9.396-2.344-12.838 1.099l-29.471 29.471c-3.905 3.905-3.905 10.236 0 14.142l13.61 13.611c2.851 2.851 4.421 6.641 4.421 10.673s-1.57 7.822-4.421 10.673-6.641 4.421-10.673 4.421-7.822-1.57-10.674-4.421l-13.61-13.61c-3.905-3.905-10.237-3.905-14.142 0l-11.376 11.377c-2.947 2.947-7.043 4.629-11.26 4.629-.05 0-.101 0-.15 0-4.08-.039-7.824-1.616-10.544-4.441-5.66-5.879-5.567-15.36.208-21.135l11.776-11.777c1.875-1.875 2.929-4.418 2.929-7.071s-1.054-5.196-2.929-7.071l-13.211-13.211c-2.982-2.982-4.669-7.141-4.629-11.411.039-4.079 1.616-7.823 4.44-10.542 5.88-5.661 15.362-5.568 21.136.206l13.61 13.611c1.875 1.875 4.419 2.929 7.071 2.929s5.196-1.054 7.071-2.929l29.472-29.472c3.442-3.442 3.906-8.862 1.099-12.838-18.416-26.088-27.138-58.127-24.56-90.213 2.607-32.445 16.702-62.972 39.688-85.958 25.881-25.883 60.353-40.137 97.063-40.136z"/><circle cx="438.96" cy="255.457" r="10"/></g></g></svg>