<svg height="512" viewBox="0 0 512 512" width="512" xmlns="http://www.w3.org/2000/svg"><g><g><g><path d="m496 84v28h-480v-28a19.994 19.994 0 0 1 20-20h440a19.994 19.994 0 0 1 20 20z" fill="#3e3d42"/><path d="m496 112v316a19.994 19.994 0 0 1 -20 20h-440a19.994 19.994 0 0 1 -20-20v-316z" fill="#d8d7da"/></g><rect fill="#ff5023" height="192" rx="40" width="240" x="136" y="184"/><path d="m200 336v-112l112 56z" fill="#d8d7da"/></g><g><path d="m476 56h-440a28.031 28.031 0 0 0 -28 28v344a28.031 28.031 0 0 0 28 28h440a28.031 28.031 0 0 0 28-28v-344a28.031 28.031 0 0 0 -28-28zm12 372a12.01 12.01 0 0 1 -12 12h-440a12.01 12.01 0 0 1 -12-12v-308h464zm0-324h-464v-20a12.01 12.01 0 0 1 12-12h440a12.01 12.01 0 0 1 12 12z"/><path d="m40 96h8a8 8 0 0 0 0-16h-8a8 8 0 0 0 0 16z"/><path d="m72 96h8a8 8 0 0 0 0-16h-8a8 8 0 0 0 0 16z"/><path d="m104 96h8a8 8 0 0 0 0-16h-8a8 8 0 0 0 0 16z"/><path d="m336 176h-160a48.054 48.054 0 0 0 -48 48v112a48.054 48.054 0 0 0 48 48h160a48.054 48.054 0 0 0 48-48v-112a48.054 48.054 0 0 0 -48-48zm32 160a32.036 32.036 0 0 1 -32 32h-160a32.036 32.036 0 0 1 -32-32v-112a32.036 32.036 0 0 1 32-32h160a32.036 32.036 0 0 1 32 32z"/><path d="m315.578 272.845-112-56a8 8 0 0 0 -11.578 7.155v112a8 8 0 0 0 11.578 7.155l112-56a8 8 0 0 0 0-14.31zm-107.578 50.211v-86.112l86.111 43.056z"/></g></g></svg>